<?xml version="1.0" standalone="no"?>
<!DOCTYPE svg PUBLIC "-//W3C//DTD SVG 1.1//EN" "http://www.w3.org/Graphics/SVG/1.1/DTD/svg11.dtd" >
<!--
2013-9-30: Created.
-->
<svg>
<metadata>
Created by iconfont
</metadata>
<defs>

<font id="iconfont" horiz-adv-x="1024" >
  <font-face
    font-family="iconfont"
    font-weight="500"
    font-stretch="normal"
    units-per-em="1024"
    ascent="896"
    descent="-128"
  />
    <missing-glyph />
    
    <glyph glyph-name="lfi059" unicode="&#59031;" d="M816.672-41.34400000000005c-8.192 0-16.384 3.136-22.624 9.376l-213.952 213.952c-12.512 12.512-12.512 32.736 0 45.248s32.736 12.512 45.248 0l191.328-191.328 33.408 33.376-190.848 190.848c-12.512 12.512-12.512 32.736 0 45.248s32.736 12.512 45.248 0l213.472-213.472c6.016-6.016 9.376-14.112 9.376-22.624s-3.36-16.64-9.376-22.624l-78.656-78.624C833.024-38.20799999999997 824.832-41.34400000000005 816.672-41.34400000000005zM590.752 768c0 0.032 0 0.064 0 0.064 1.472 4.16 2.048 8.352 1.792 12.512 0 0 0 0 0 0 0 0-0.032 0.064-0.032 0.096-0.256 4.128-1.312 8.096-3.104 11.776-0.352 0.704-0.896 1.248-1.28 1.92-1.632 2.848-3.456 5.472-5.952 7.712-0.928 0.864-2.08 1.376-3.136 2.112-1.92 1.376-3.616 3.008-5.888 3.968-0.608 0.256-1.248 0.384-1.888 0.608-0.032 0-0.064 0.032-0.096 0.032-114.144 46.624-243.808 20.704-331.072-66.592C239.328 741.472 239.04 740.4159999999999 238.336 739.5840000000001 237.472 738.88 236.448 738.592 235.648 737.792L73.664 576.448c-6.016-6.016-9.408-14.144-9.408-22.656s3.36-16.64 9.376-22.656l98.304-98.304c6.016-6.016 14.144-9.376 22.624-9.376s16.64 3.36 22.624 9.376l56.032 56.032 68.192-68.224c6.24-6.24 14.432-9.376 22.624-9.376s16.384 3.136 22.624 9.376c12.512 12.48 12.512 32.736 0 45.248l-90.816 90.848c-12.512 12.512-32.736 12.512-45.248 0L194.56 500.704l-52.992 53.024 139.264 138.72c0.832 0.8 1.12 1.888 1.824 2.752 0.864 0.704 1.92 0.992 2.72 1.824 40 39.936 91.296 63.072 144.864 68.768-2.208-1.664-4.384-3.392-6.56-5.12-8.96-6.784-17.632-14.016-25.664-22.048-0.544-0.544-0.736-1.248-1.216-1.824-19.232-19.36-35.936-41.024-49.568-64.512-2.464-4.224-4.768-8.448-7.008-12.736l0.416-0.224c-12.288-24.64-12.288-53.664 0.48-78.144 1.536-2.944 3.52-5.504 5.76-7.744 0.768-0.96 1.088-2.112 1.984-2.976l70.432-70.464c6.24-6.24 14.432-9.376 22.624-9.376s16.384 3.136 22.624 9.376c12.512 12.48 12.512 32.736 0 45.248l-67.072 67.072c-2.624 6.112-2.688 13.024 0.448 18.976 0.16 0.288 0.128 0.608 0.256 0.896 1.44 2.656 2.848 5.344 4.384 7.968 11.008 18.944 24.48 36.448 40.064 52.032 4.096 4.096 8.608 7.648 12.96 11.456 30.144 25.28 67.232 40.864 106.816 43.136 0.576 0.032 1.056 0.352 1.632 0.416 3.616 0.384 7.104 1.184 10.368 2.72 0.512 0.256 0.896 0.64 1.376 0.896 3.168 1.696 6.048 3.776 8.512 6.496 0.256 0.288 0.384 0.64 0.608 0.928 2.08 2.464 4.128 4.928 5.44 8.064C590.624 766.88 590.528 767.456 590.752 768zM289.536-64.03200000000004c-28.384 0-56.928 6.368-82.624 18.432-9.408 4.448-16.096 13.184-17.888 23.456-1.792 10.24 1.504 20.736 8.896 28.128l88.064 88.096-33.056 33.024-87.52-87.488c-7.424-7.424-18.048-10.848-28.384-8.832-10.336 1.888-19.104 8.704-23.392 18.304-32.736 72.64-17.088 159.072 38.944 215.104 50.048 50.08 126.048 68.384 193.952 47.04l238.688 238.72c-21.28 67.712-3.648 143.264 47.04 193.952 36.128 36.16 84.256 56.064 135.456 56.064 27.264 0 54.816-5.92 79.648-17.12 9.568-4.32 16.448-13.056 18.304-23.392 1.92-10.336-1.408-20.96-8.832-28.384l-88.8-88.8 33.024-33.056 89.376 89.344c7.392 7.392 17.92 10.72 28.128 8.896 10.272-1.792 19.04-8.48 23.456-17.888 34.496-73.376 19.424-160.96-37.536-217.92-36.096-36.096-84.128-56-135.296-56-20.704 0-41.536 3.392-61.216 9.952l-237.12-237.12c22.688-68.48 5.44-145.024-46.048-196.544C388.736-44.15999999999997 340.672-64.03200000000004 289.536-64.03200000000004zM282.592 0.15999999999996817c36.352-2.112 71.36 11.392 96.992 37.024 37.952 37.952 47.936 96.384 24.864 145.408-5.76 12.224-3.232 26.72 6.336 36.256l266.816 266.848c9.536 9.536 24.032 12.032 36.256 6.336 47.936-22.56 108-12.544 145.408 24.864 25.952 25.92 38.784 61.408 36.992 96.96l-72.576-72.544c-6.016-6.016-14.112-9.376-22.624-9.376l0 0c-8.512 0-16.64 3.36-22.624 9.376L700.16 619.5840000000001c-12.512 12.512-12.512 32.736 0 45.248l71.04 71.04c-35.072 0.896-68.8-12.384-93.696-37.28-37.92-37.92-48.064-94.272-25.856-143.552 5.44-12.128 2.848-26.368-6.56-35.776l-267.936-267.968c-9.376-9.376-23.648-11.936-35.776-6.56-47.68 21.504-106.624 11.104-143.584-25.856-25.504-25.536-38.464-59.392-37.408-93.856l69.92 69.92c12.512 12.512 32.736 12.512 45.248 0l78.304-78.272c6.016-6.016 9.376-14.112 9.376-22.624 0-8.48-3.36-16.64-9.376-22.624L282.592 0.15999999999996817z"  horiz-adv-x="1024" />

    
    <glyph glyph-name="lfi058" unicode="&#59293;" d="M800 768L288 768C252.8 768 224 739.2 224 704l0-64L192 640C172.8 640 160 627.2 160 608s12.8-32 32-32l32 0 0-160L192 416c-19.2 0-32-12.8-32-32s12.8-32 32-32l32 0 0-160L192 192c-19.2 0-32-12.8-32-32s12.8-32 32-32l32 0 0-64c0-35.2 28.8-64 64-64l512 0c35.2 0 64 28.8 64 64L864 704C864 739.2 835.2 768 800 768zM800 64L288 64 288 704l512 0L800 64zM384 352l320 0c19.2 0 32 12.8 32 32l0 160c0 19.2-12.8 32-32 32L384 576c-19.2 0-32-12.8-32-32l0-160C352 364.79999999999995 364.8 352 384 352zM416 512l256 0 0-96-256 0L416 512z"  horiz-adv-x="1024" />

    
    <glyph glyph-name="lfi057" unicode="&#58987;" d="M817.442574-62.88190999999995c-37.660738 0-74.094532 15.508205-100.227726 42.608423l-176.947038 162.494885c-37.896098-13.458523-77.632101-20.272719-118.465088-20.272719-195.443297 0-354.453824 159.010527-354.453825 354.467127 0 52.908 11.383258 103.791901 33.822317 151.269216a40.038902 40.038902 0 0 0 29.005614 22.295795c12.780071 2.336208 25.755594-1.592264 35.036981-10.534937l156.621107-150.616346 80.791048 83.793428-157.978011 151.504576a40.080857 40.080857 0 0 0-11.983939 34.305317 40.10337 40.10337 0 0 0 20.651342 29.906123c51.41909 27.830859 109.678982 42.542932 168.487366 42.542932 195.4566 0 354.467127-159.010527 354.467127-354.467127 0-32.216749-4.333702-64.173578-12.884448-94.993515a349.106026 349.106026 0 0 0-8.236592-25.794479 362.698602 362.698602 0 0 0-8.340969-20.912285l165.001985-156.060336c28.497031-26.290783 44.840254-63.559595 44.840254-102.329596 0-76.756151-62.450331-139.206482-139.207505-139.206482zM548.84414 228.887246a40.075741 40.075741 0 0 0 27.139103-10.56052l196.461487-180.419115a50.944276 50.944276 0 0 0 2.062986-2.03638c11.265578-11.957333 26.51284-18.549471 42.934858-18.549471 32.530904 0 59.003835 26.472931 59.003835 59.003835 0 16.708544-6.78759 32.152281-19.111266 43.470048-0.156566 0.130983-0.299829 0.274246-0.444115 0.404206l-186.618305 176.502923c-13.236466 12.519128-16.369829 32.399921-7.623631 48.377823a272.762267 272.762267 0 0 1 17.10047 37.882796 266.98468 266.98468 0 0 1 6.344498 19.880793c6.618744 23.849174 9.973142 48.599881 9.973142 73.571622 0 151.23033-123.033128 274.263457-274.263457 274.263457a275.79944 275.79944 0 0 1-77.383438-11.109012l142.745075-136.89688c7.689123-7.375991 12.127202-17.505699 12.335956-28.157293s-3.825119-20.951171-11.226692-28.614711l-136.505977-141.568273c-15.338337-15.939017-40.74089-16.395412-56.654325-1.070378l-140.564409 135.173632c-4.646833-20.142759-6.997368-40.871873-6.997368-62.019519 0-151.23033 123.033128-274.263457 274.250155-274.263457 38.600133 0 75.882248 7.845689 110.828154 23.301705a39.978527 39.978527 0 0 0 16.213264 3.432169z"  horiz-adv-x="1024" />

    
    <glyph glyph-name="lfi056" unicode="&#59540;" d="M832 0V683.2c0 8.8-7.2 16-16 16H640V816c0 8.8-7.2 16-16 16H208c-8.8 0-16-7.2-16-16v-816h-64v-64h768v64h-64z m-64 635.2V32H640V128h64v64h-64v64h64v64h-64v64h64v64h-64v64h64v64h-64v59.2h128zM256 768h320v-736H256V768z m64-64h64v-64h-64v64z m128 0h64v-64h-64v64zM320 576h64v-64h-64v64z m128 0h64v-64h-64v64zM320 448h64v-64h-64v64z m128 0h64v-64h-64v64zM320 320h64v-64h-64v64z m128 0h64v-64h-64v64zM320 192h64v-64h-64v64z m128 0h64v-64h-64v64z"  horiz-adv-x="1024" />

    
    <glyph glyph-name="lfi055" unicode="&#59544;" d="M704 704v-384H257.6c-24 0-46.4-6.4-65.6-17.6V639.2c0 36 28.8 64.8 64.8 64.8H704m64 64H256.8C185.6 768 128 710.4 128 639.2v-510.4c0-71.2 57.6-128.8 128.8-128.8H896V704h-64v-640H257.6c-36 0-65.6 29.6-65.6 65.6v60.8c0 36 29.6 65.6 65.6 65.6H768V768z m0-576H256v-64h512v64z"  horiz-adv-x="1024" />

    
    <glyph glyph-name="lfi054" unicode="&#59551;" d="M607.2 768H416.8c-17.6 0-32.8-14.4-32.8-32.8V640H160c-17.6 0-32-14.4-32-32v-576c0-17.6 14.4-32 32-32h704c17.6 0 32 14.4 32 32V608c0 17.6-14.4 32-32 32H640V735.2c0 18.4-14.4 32.8-32.8 32.8zM448 640v64h128v-64H448z m64-256l-320 53.6V576h640v-138.4L512 384z m0-32l320 53.6V64H192V405.6L512 352z m48 160H464c-8.8 0-16-7.2-16-16v-32c0-8.8 7.2-16 16-16h96c8.8 0 16 7.2 16 16v32c0 8.8-7.2 16-16 16z"  horiz-adv-x="1024" />

    
    <glyph glyph-name="lfi053" unicode="&#60257;" d="M592 560h-416c-52.928 0-96-43.072-96-96v-416c0-52.928 43.072-96 96-96h416c52.928 0 96 43.072 96 96v416c0 52.928-43.072 96-96 96z m32-512a32 32 0 0 0-32-32h-416c-17.632 0-32 14.336-32 32v416c0 17.632 14.368 32 32 32h416c17.664 0 32-14.368 32-32v-416zM720 688h-416a32 32 0 0 1 0-64h416c17.664 0 32-14.368 32-32v-416a32 32 0 1 1 64 0v416c0 52.928-43.072 96-96 96zM528 144h-288a32 32 0 1 1 0-64h288a32 32 0 1 1 0 64zM848 816h-416a32 32 0 0 1 0-64h416c17.664 0 32-14.368 32-32v-416a32 32 0 1 1 64 0v416c0 52.928-43.072 96-96 96z"  horiz-adv-x="1024" />

    
    <glyph glyph-name="lfi052" unicode="&#60259;" d="M782.208 365.28L724.288 448l57.92 82.72a32 32 0 0 1-20.672 49.856l-99.456 17.536-17.536 99.456a32 32 0 0 1-49.856 20.672L512 660.288l-82.72 57.92a32 32 0 0 1-49.856-20.672l-17.536-99.456-99.456-17.504a32 32 0 0 1-20.672-49.856L299.712 448l-57.92-82.72a32 32 0 0 1 20.672-49.856l99.456-17.536 17.536-99.456a32 32 0 0 1 49.856-20.672L512 235.712l82.72-57.92a32 32 0 0 1 49.856 20.672l17.536 99.456 99.456 17.536a31.968 31.968 0 0 1 20.64 49.824z m-123.2 64.352l41.952-59.904-72.032-12.704a32 32 0 0 1-25.952-25.952l-12.704-72.032-59.904 41.952a32 32 0 0 1-36.704 0l-59.904-41.952-12.704 72.032a32 32 0 0 1-25.952 25.952l-72.032 12.704 41.952 59.904a32 32 0 0 1 0 36.704l-41.952 59.904 72.032 12.704a32 32 0 0 1 25.952 25.952l12.704 72.032 59.904-41.952a32 32 0 0 1 36.704 0l59.904 41.952 12.704-72.032a32 32 0 0 1 25.952-25.952l72.032-12.704-41.952-59.904a32 32 0 0 1 0-36.704zM512 861.088c-243.008 0-440-196.992-440-440a438.72 438.72 0 0 1 133.344-315.552 32 32 0 1 1 44.608 45.888 374.752 374.752 0 0 0-113.952 269.664c0 207.648 168.352 376 376 376s376-168.352 376-376c0-99.136-38.496-192.096-106.144-261.824a32 32 0 1 1 45.92-44.576 438.56 438.56 0 0 1 124.224 306.4c0 243.008-196.992 440-440 440zM704 134.91200000000003a32 32 0 0 1-32-32v-107.104l-142.24 94.848-0.064 0.032a32 32 0 0 1-11.552 4.736c-2.048 0.416-4.096 0.032-6.144 0.032s-4.096 0.352-6.144-0.032c-4.096-0.8-8-2.4-11.552-4.736l-0.064-0.032L352-4.224000000000046V96a32 32 0 0 1-64 0v-160c0-0.992 0.48-1.856 0.576-2.848a32.256 32.256 0 0 1 3.712-12.224c0.48-0.864 0.544-1.856 1.088-2.688 0.576-0.896 1.504-1.344 2.176-2.144a31.36 31.36 0 0 1 21.472-11.488c1.024-0.096 1.92-0.608 2.976-0.608 0.992 0 1.856 0.48 2.848 0.576a32.256 32.256 0 0 1 12.256 3.712c0.864 0.48 1.856 0.544 2.688 1.088L512 25.535999999999945l174.24-116.16c14.688-9.792 34.56-5.824 44.384 8.864a31.584 31.584 0 0 1 4.768 21.664c0.096 1.056 0.608 1.952 0.608 3.04v159.968a32 32 0 0 1-32 32z"  horiz-adv-x="1024" />

    
    <glyph glyph-name="lfi051" unicode="&#60261;" d="M224 139.072h224a32 32 0 0 0 31.52-26.432c3.168-18.304 18.272-26.944 32.992-26.304 14.144-0.64 28.672 7.392 32.672 24.512 3.968 16.992 16.928 28.224 30.816 28.224h224a96 96 0 0 1 96 96V672a96 96 0 0 1-96 96h-224c-24.448 0-46.24-9.952-63.008-25.728A95.36 95.36 0 0 1 448 768H224a96 96 0 0 1-96-96v-436.928a96 96 0 0 1 96-96zM576 704h224a32 32 0 0 0 32-32v-436.928a32 32 0 0 0-32-32h-224c-11.2 0-21.984-2.048-32-5.824V665.376C544 687.36 559.072 704 576 704zM192 672a32 32 0 0 0 32 32h224a32 32 0 0 0 32-32v-474.432a95.872 95.872 0 0 1-32 5.472H224a32 32 0 0 0-32 32V672zM957.984 608a32 32 0 0 1-32-32v-448a32 32 0 0 0-32-32h-224a96.096 96.096 0 0 1-83.168-48h-151.648A96.096 96.096 0 0 1 352 96H128a32 32 0 0 0-32 32V576a32 32 0 0 1-64 0v-448a96 96 0 0 1 96-96h224c14.688 0 27.392-9.984 31.008-23.968a32 32 0 0 1 31.008-24.032H608c14.592 0 27.36 9.888 31.008 24.032a32 32 0 0 0 30.976 23.968h224a96 96 0 0 1 96 96V576a32 32 0 0 1-32 32zM272 560h113.152a32 32 0 0 1 0 64H272a32 32 0 0 1 0-64zM272 432h113.152a32 32 0 0 1 0 64H272a32 32 0 0 1 0-64z"  horiz-adv-x="1024" />

    
    <glyph glyph-name="lfi050" unicode="&#60263;" d="M575.232 0H160a32 32 0 0 0-32 32V736a32 32 0 0 0 32 32h544c17.664 0 32-14.336 32-32a32 32 0 0 1 64 0 96 96 0 0 1-96 96H160a96 96 0 0 1-96-96v-704a96 96 0 0 1 96-96h415.232a32 32 0 0 1 0 64zM512 608a32 32 0 0 1-32 32H224a32 32 0 0 1 0-64h256a32 32 0 0 1 32 32zM480 416a32 32 0 0 1-32 32H224a32 32 0 0 1 0-64h224a32 32 0 0 1 32 32zM224 224a32 32 0 0 1 0-64h128a32 32 0 0 1 0 64H224zM864 272h-66.176C822.08 339.712 864 464.352 864 480a160 160 0 0 1-320 0c0-20.064 39.84-139.744 65.696-208H544a96 96 0 0 1-96-96v-32a96 96 0 0 1 96-96h320a96 96 0 0 1 96 96v32a96 96 0 0 1-96 96z m-221.536 98.464C623.104 426.24 608 475.392 608 480a96 96 0 1 0 192 0c0-6.304-52.192-158.464-70.336-208h-51.2c-8 20.16-22.4 59.264-36 98.464zM896 144a32 32 0 0 0-32-32H544a32 32 0 0 0-32 32v32a32 32 0 0 0 32 32h320a32 32 0 0 0 32-32v-32z"  horiz-adv-x="1024" />

    
    <glyph glyph-name="lfi049" unicode="&#60264;" d="M959.36 371.20000000000005c0.128 4.288 0.64 8.48 0.64 12.8 0 53.6-9.408 105.92-27.616 155.2a32 32 0 0 1-60.032-22.144c13.76-37.28 21.28-76.64 22.944-117.024H832a32 32 0 0 1 0-64h60.672c-22.336-178.944-167.552-319.424-348.672-334.4V64a32 32 0 0 1-64 0v-62.368C298.88 16.607999999999947 153.664 157.08799999999997 131.328 336H192a32 32 0 0 1 0 64H128.8C136.832 593.9200000000001 288.224 750.528 480 766.3679999999999V704a32 32 0 0 1 64 0V766.336c42.912-3.552 84.48-13.856 123.36-31.072a31.968 31.968 0 1 1 25.92 58.496A445.824 445.824 0 0 1 512 832C264.576 832 64 631.424 64 384c0-4.32 0.512-8.512 0.64-12.8-0.096-1.12-0.64-2.08-0.64-3.2 0-1.888 0.768-3.552 1.088-5.344C76.288 125.21600000000001 271.776-64 512-64s435.712 189.216 446.912 426.656c0.32 1.792 1.088 3.456 1.088 5.344 0 1.12-0.544 2.08-0.64 3.2zM851.392 733.408L475.936 572.48A191.936 191.936 0 0 1 512 192a191.936 191.936 0 0 1 179.296 123.744L892.16 688.832c0.288 0.544 0.256 1.152 0.512 1.696 0.96 2.016 1.408 4.16 1.92 6.336 0.448 1.92 0.992 3.776 1.088 5.728 0.096 1.952-0.288 3.808-0.576 5.76-0.32 2.24-0.576 4.384-1.344 6.496-0.192 0.576-0.128 1.184-0.352 1.76-0.544 1.312-1.6 2.176-2.304 3.36a29.664 29.664 0 0 1-3.744 5.408 28.864 28.864 0 0 1-5.056 4.192c-1.12 0.8-1.888 1.92-3.136 2.592-0.544 0.288-1.152 0.256-1.696 0.512-2.016 0.96-4.16 1.408-6.336 1.92-1.92 0.448-3.776 0.992-5.728 1.088-1.952 0.096-3.808-0.288-5.76-0.576-2.24-0.32-4.384-0.576-6.496-1.344-0.576-0.192-1.184-0.096-1.76-0.352z m-253.056-178.08l194.048 83.168-100.768-187.136a192.32 192.32 0 0 1-93.28 103.968z"  horiz-adv-x="1024" />

    
    <glyph glyph-name="lfi048" unicode="&#60306;" d="M896 832H234.656C157.728 832 96 767.2 96 688c0-5.472 0.992-10.688 1.536-16H96v-576c0-88.032 68.544-160 153.92-160H896V608H234.656C193.792 608 160 643.488 160 688S193.792 768 234.656 768H896V832z m-432-288H640v-172.192l-68.192 53.696a31.968 31.968 0 0 1-39.584 0L464 371.808V544z m-229.344 0H400v-238.112a32 32 0 0 1 51.808-25.152l100.192 78.912 100.192-78.912A32 32 0 0 1 704 305.88800000000003V544h128v-544H249.92C200.608 0 160 42.65599999999995 160 96V566.976c21.536-14.368 47.04-22.976 74.656-22.976zM255.776 720H832v-64H255.776z"  horiz-adv-x="1024" />

    
    <glyph glyph-name="lfi047" unicode="&#60308;" d="M512 768C264.96 768 64 567.04 64 320c0-100.544 32.544-195.52 94.08-274.688a31.968 31.968 0 1 1 50.528 39.232A380.384 380.384 0 0 0 128 320C128 531.744 300.256 704 512 704s384-172.256 384-384c0-86.144-27.872-167.584-80.64-235.456a31.904 31.904 0 0 1 5.632-44.864 31.84 31.84 0 0 1 44.864 5.632A443.264 443.264 0 0 1 960 320c0 247.04-200.96 448-448 448zM512 544a32 32 0 0 1 32 32V640a32 32 0 1 1-64 0v-64a32 32 0 0 1 32-32zM241.888 474.528a32 32 0 1 1-35.776-53.056l53.056-35.776a31.936 31.936 0 0 1 44.416 8.64 32 32 0 0 1-8.64 44.416l-53.056 35.776zM810.848 472.064a32 32 0 0 1-45.152 3.168l-48.32-41.984a32 32 0 0 1 41.984-48.32l48.32 41.984a32 32 0 0 1 3.168 45.152zM607.392 160c0 2.592 0.288 5.12-0.352 7.744l-64 256c-0.352 1.44-1.28 2.496-1.824 3.84-0.864 2.144-1.632 4.256-2.944 6.176-1.12 1.664-2.528 2.944-3.904 4.352-1.504 1.536-2.912 3.008-4.704 4.224-1.76 1.184-3.712 1.888-5.664 2.688-1.44 0.608-2.624 1.6-4.224 1.984-0.512 0.128-0.992-0.032-1.504 0.064-2.048 0.416-4.128 0.288-6.272 0.288-2.112 0-4.192 0.128-6.24-0.288-0.512-0.096-1.024 0.064-1.536-0.064-1.632-0.416-2.848-1.44-4.352-2.08-1.888-0.8-3.744-1.472-5.472-2.592-1.888-1.248-3.36-2.816-4.928-4.384-1.344-1.344-2.656-2.592-3.744-4.192-1.312-1.92-2.08-4-2.944-6.144-0.544-1.344-1.472-2.432-1.856-3.872l-64-256c-0.672-2.624-0.352-5.184-0.352-7.744H416c0-1.408 0.352-2.688 0.416-4.096l0.128-1.312C419.424 104.22400000000005 460.928 64 512 64s92.576 40.224 95.456 90.592l0.128 1.312c0.064 1.376 0.416 2.688 0.416 4.096h-0.608zM512 128a31.808 31.808 0 0 0-31.552 29.824L512 284.096l31.552-126.24A31.776 31.776 0 0 0 512 128z"  horiz-adv-x="1024" />

    
    <glyph glyph-name="lfi046" unicode="&#60343;" d="M864 736h-164.512A127.712 127.712 0 0 1 576 832a128 128 0 0 1 0-256 127.712 127.712 0 0 1 123.488 96H864a32 32 0 0 0 32-32v-288a32 32 0 0 0-32-32h-304a32 32 0 0 1 0-64H864a96 96 0 0 1 96 96V640a96 96 0 0 1-96 96z m-288-96a64 64 0 1 0 0.032 128.032A64 64 0 0 0 576 640zM832 192c-57.376 0-105.376-38.016-121.632-90.048H384a31.872 31.872 0 0 0-31.744 30.656A127.68 127.68 0 0 1 320 384c-47.264 0-88.064-25.888-110.24-64H160a32 32 0 0 0-32 32V640a32 32 0 0 0 32 32h208a32 32 0 0 1 0 64H160a96 96 0 0 1-96-96v-288a96 96 0 0 1 96-96h32a127.68 127.68 0 0 1 96.16-123.52A95.936 95.936 0 0 1 384 37.91999999999996h322.688A128 128 0 1 1 832 192zM256 256a64 64 0 1 0 128.032-0.032A64 64 0 0 0 256 256z m576-256a64 64 0 1 0 0.032 128.032A64 64 0 0 0 832 0z"  horiz-adv-x="1024" />

    
    <glyph glyph-name="lfi045" unicode="&#60369;" d="M892.224 778.976c-83.936 83.936-231.648 81.12-387.616 3.84-155.936 77.28-303.68 80.096-387.616-3.84-69.76-69.76-79.488-183.552-36.64-309.344a95.776 95.776 0 0 1 12.992-122.528c-55.936-136.896-53.472-266.176 23.68-343.328 83.936-83.936 231.712-81.152 387.776-3.776 152.8-75.68 302.016-81.632 387.424 3.776 85.44 85.44 79.424 234.72 3.68 387.584 75.744 152.896 81.76 302.176-3.68 387.616z m-45.248-729.952c-96.416-96.416-332.64-29.408-523.36 161.344a31.968 31.968 0 1 1-45.248-45.248 913.056 913.056 0 0 1 157.376-126.304c-117.248-47.904-219.104-44.128-273.472 10.24-55.776 55.776-56.544 158.368-10.656 271.808 2.816-0.256 5.504-0.864 8.384-0.864a96 96 0 0 1 96 96c0 21.024-6.944 40.288-18.4 56.096a870.592 870.592 0 0 0 86.016 100.288 31.968 31.968 0 1 1-45.248 45.248 933.6 933.6 0 0 1-93.472-109.344A92.928 92.928 0 0 1 160 512a95.68 95.68 0 0 1-24.736-3.616c-28.704 96.448-19.776 178.56 27.008 225.344 62.368 62.368 187.264 58.176 326.112-14.24a31.008 31.008 0 0 1 16.544-3.04 31.104 31.104 0 0 1 16.032 3.104c138.816 72.352 263.648 76.544 326.016 14.176 56-56 56.544-159.2 10.048-273.216a879.36 879.36 0 0 1-67.584 92.48c6.528 11.584 10.56 24.768 10.56 39.008a80 80 0 1 1-80-80c6.368 0 12.48 0.928 18.4 2.336a795.968 795.968 0 0 0 85.408-122.944c-31.52-56.672-73.984-114.08-126.176-168.352-3.2 0.384-6.336 0.96-9.632 0.96a80 80 0 1 1 65.792-34.624 901.056 901.056 0 0 1 103.232 132.864c46.464-113.984 45.952-217.216-10.048-273.216zM512 512a128 128 0 1 1 0-256 128 128 0 0 1 0 256z m0-192a64 64 0 1 0 0.032 128.032A64 64 0 0 0 512 320z"  horiz-adv-x="1024" />

    
    <glyph glyph-name="lfi044" unicode="&#59284;" d="M880 784H144c-17.7 0-32-14.3-32-32v-736c0-17.7 14.3-32 32-32h736c17.7 0 32 14.3 32 32V752c0 17.7-14.3 32-32 32z m-40-728H184V712h656v-656zM340 213v-77c0-4.4 3.6-8 8-8h48c4.4 0 8 3.6 8 8v77c-10.1-3.3-20.8-5-32-5s-21.9 1.8-32 5zM404 411V632c0 4.4-3.6 8-8 8h-48c-4.4 0-8-3.6-8-8v-221c10.1 3.3 20.8 5 32 5s21.9-1.8 32-5zM340 213c10.1-3.3 20.8-5 32-5s21.9 1.8 32 5c41.8 13.5 72 52.7 72 99s-30.2 85.5-72 99c-10.1 3.3-20.8 5-32 5s-21.9-1.8-32-5c-41.8-13.5-72-52.7-72-99s30.2-85.5 72-99z m0.1 115.7c0.3 0.6 0.7 1.2 1 1.8v0.1l1.2 1.8c0.1 0.2 0.2 0.3 0.3 0.5 0.3 0.5 0.7 0.9 1 1.4 0.1 0.1 0.2 0.3 0.3 0.4 0.5 0.6 0.9 1.1 1.4 1.6l0.3 0.3 1.2 1.2 0.4 0.4c0.5 0.5 1 0.9 1.6 1.4 0.6 0.5 1.1 0.9 1.7 1.3 0.2 0.1 0.3 0.2 0.5 0.3 0.5 0.3 0.9 0.7 1.4 1 0.1 0.1 0.3 0.2 0.4 0.3 0.6 0.4 1.2 0.7 1.9 1.1 0.1 0.1 0.3 0.1 0.4 0.2 0.5 0.3 1 0.5 1.6 0.8l0.6 0.3c0.7 0.3 1.3 0.6 2 0.8 0.7 0.3 1.4 0.5 2.1 0.7 0.2 0.1 0.4 0.1 0.6 0.2 0.6 0.2 1.1 0.3 1.7 0.4 0.2 0 0.3 0.1 0.5 0.1 0.7 0.2 1.5 0.3 2.2 0.4 0.2 0 0.3 0 0.5 0.1 0.6 0.1 1.2 0.1 1.8 0.2h0.6c0.8 0 1.5 0.1 2.3 0.1s1.5 0 2.3-0.1h0.6c0.6 0 1.2-0.1 1.8-0.2 0.2 0 0.3 0 0.5-0.1 0.7-0.1 1.5-0.2 2.2-0.4 0.2 0 0.3-0.1 0.5-0.1 0.6-0.1 1.2-0.3 1.7-0.4 0.2-0.1 0.4-0.1 0.6-0.2 0.7-0.2 1.4-0.4 2.1-0.7 0.7-0.2 1.3-0.5 2-0.8l0.6-0.3c0.5-0.2 1.1-0.5 1.6-0.8 0.1-0.1 0.3-0.1 0.4-0.2 0.6-0.3 1.3-0.7 1.9-1.1 0.1-0.1 0.3-0.2 0.4-0.3 0.5-0.3 1-0.6 1.4-1 0.2-0.1 0.3-0.2 0.5-0.3 0.6-0.4 1.2-0.9 1.7-1.3s1.1-0.9 1.6-1.4l0.4-0.4 1.2-1.2 0.3-0.3c0.5-0.5 1-1.1 1.4-1.6 0.1-0.1 0.2-0.3 0.3-0.4 0.4-0.4 0.7-0.9 1-1.4 0.1-0.2 0.2-0.3 0.3-0.5l1.2-1.8s0-0.1 0.1-0.1c0.4-0.6 0.7-1.2 1-1.8 2.6-5 4.1-10.7 4.1-16.7s-1.5-11.7-4.1-16.7c-0.3-0.6-0.7-1.2-1-1.8 0 0 0-0.1-0.1-0.1l-1.2-1.8c-0.1-0.2-0.2-0.3-0.3-0.5-0.3-0.5-0.7-0.9-1-1.4-0.1-0.1-0.2-0.3-0.3-0.4-0.5-0.6-0.9-1.1-1.4-1.6l-0.3-0.3-1.2-1.2-0.4-0.4c-0.5-0.5-1-0.9-1.6-1.4-0.6-0.5-1.1-0.9-1.7-1.3-0.2-0.1-0.3-0.2-0.5-0.3-0.5-0.3-0.9-0.7-1.4-1-0.1-0.1-0.3-0.2-0.4-0.3-0.6-0.4-1.2-0.7-1.9-1.1-0.1-0.1-0.3-0.1-0.4-0.2-0.5-0.3-1-0.5-1.6-0.8l-0.6-0.3c-0.7-0.3-1.3-0.6-2-0.8-0.7-0.3-1.4-0.5-2.1-0.7-0.2-0.1-0.4-0.1-0.6-0.2-0.6-0.2-1.1-0.3-1.7-0.4-0.2 0-0.3-0.1-0.5-0.1-0.7-0.2-1.5-0.3-2.2-0.4-0.2 0-0.3 0-0.5-0.1-0.6-0.1-1.2-0.1-1.8-0.2h-0.6c-0.8 0-1.5-0.1-2.3-0.1s-1.5 0-2.3 0.1h-0.6c-0.6 0-1.2 0.1-1.8 0.2-0.2 0-0.3 0-0.5 0.1-0.7 0.1-1.5 0.2-2.2 0.4-0.2 0-0.3 0.1-0.5 0.1-0.6 0.1-1.2 0.3-1.7 0.4-0.2 0.1-0.4 0.1-0.6 0.2-0.7 0.2-1.4 0.4-2.1 0.7-0.7 0.2-1.3 0.5-2 0.8l-0.6 0.3c-0.5 0.2-1.1 0.5-1.6 0.8-0.1 0.1-0.3 0.1-0.4 0.2-0.6 0.3-1.3 0.7-1.9 1.1-0.1 0.1-0.3 0.2-0.4 0.3-0.5 0.3-1 0.6-1.4 1-0.2 0.1-0.3 0.2-0.5 0.3-0.6 0.4-1.2 0.9-1.7 1.3s-1.1 0.9-1.6 1.4l-0.4 0.4-1.2 1.2-0.3 0.3c-0.5 0.5-1 1.1-1.4 1.6-0.1 0.1-0.2 0.3-0.3 0.4-0.4 0.4-0.7 0.9-1 1.4-0.1 0.2-0.2 0.3-0.3 0.5l-1.2 1.8v0.1c-0.4 0.6-0.7 1.2-1 1.8-2.6 5-4.1 10.7-4.1 16.7s1.5 11.7 4.1 16.7zM620 357v-221c0-4.4 3.6-8 8-8h48c4.4 0 8 3.6 8 8V357c-10.1-3.3-20.8-5-32-5s-21.9 1.8-32 5zM684 555v77c0 4.4-3.6 8-8 8h-48c-4.4 0-8-3.6-8-8v-77c10.1 3.3 20.8 5 32 5s21.9-1.8 32-5zM620 357c10.1-3.3 20.8-5 32-5s21.9 1.8 32 5c41.8 13.5 72 52.7 72 99s-30.2 85.5-72 99c-10.1 3.3-20.8 5-32 5s-21.9-1.8-32-5c-41.8-13.5-72-52.7-72-99s30.2-85.5 72-99z m0.1 115.7c0.3 0.6 0.7 1.2 1 1.8v0.1l1.2 1.8c0.1 0.2 0.2 0.3 0.3 0.5 0.3 0.5 0.7 0.9 1 1.4 0.1 0.1 0.2 0.3 0.3 0.4 0.5 0.6 0.9 1.1 1.4 1.6l0.3 0.3 1.2 1.2 0.4 0.4c0.5 0.5 1 0.9 1.6 1.4 0.6 0.5 1.1 0.9 1.7 1.3 0.2 0.1 0.3 0.2 0.5 0.3 0.5 0.3 0.9 0.7 1.4 1 0.1 0.1 0.3 0.2 0.4 0.3 0.6 0.4 1.2 0.7 1.9 1.1 0.1 0.1 0.3 0.1 0.4 0.2 0.5 0.3 1 0.5 1.6 0.8l0.6 0.3c0.7 0.3 1.3 0.6 2 0.8 0.7 0.3 1.4 0.5 2.1 0.7 0.2 0.1 0.4 0.1 0.6 0.2 0.6 0.2 1.1 0.3 1.7 0.4 0.2 0 0.3 0.1 0.5 0.1 0.7 0.2 1.5 0.3 2.2 0.4 0.2 0 0.3 0 0.5 0.1 0.6 0.1 1.2 0.1 1.8 0.2h0.6c0.8 0 1.5 0.1 2.3 0.1s1.5 0 2.3-0.1h0.6c0.6 0 1.2-0.1 1.8-0.2 0.2 0 0.3 0 0.5-0.1 0.7-0.1 1.5-0.2 2.2-0.4 0.2 0 0.3-0.1 0.5-0.1 0.6-0.1 1.2-0.3 1.7-0.4 0.2-0.1 0.4-0.1 0.6-0.2 0.7-0.2 1.4-0.4 2.1-0.7 0.7-0.2 1.3-0.5 2-0.8l0.6-0.3c0.5-0.2 1.1-0.5 1.6-0.8 0.1-0.1 0.3-0.1 0.4-0.2 0.6-0.3 1.3-0.7 1.9-1.1 0.1-0.1 0.3-0.2 0.4-0.3 0.5-0.3 1-0.6 1.4-1 0.2-0.1 0.3-0.2 0.5-0.3 0.6-0.4 1.2-0.9 1.7-1.3s1.1-0.9 1.6-1.4l0.4-0.4 1.2-1.2 0.3-0.3c0.5-0.5 1-1.1 1.4-1.6 0.1-0.1 0.2-0.3 0.3-0.4 0.4-0.4 0.7-0.9 1-1.4 0.1-0.2 0.2-0.3 0.3-0.5l1.2-1.8v-0.1c0.4-0.6 0.7-1.2 1-1.8 2.6-5 4.1-10.7 4.1-16.7s-1.5-11.7-4.1-16.7c-0.3-0.6-0.7-1.2-1-1.8v-0.1l-1.2-1.8c-0.1-0.2-0.2-0.3-0.3-0.5-0.3-0.5-0.7-0.9-1-1.4-0.1-0.1-0.2-0.3-0.3-0.4-0.5-0.6-0.9-1.1-1.4-1.6l-0.3-0.3-1.2-1.2-0.4-0.4c-0.5-0.5-1-0.9-1.6-1.4-0.6-0.5-1.1-0.9-1.7-1.3-0.2-0.1-0.3-0.2-0.5-0.3-0.5-0.3-0.9-0.7-1.4-1-0.1-0.1-0.3-0.2-0.4-0.3-0.6-0.4-1.2-0.7-1.9-1.1-0.1-0.1-0.3-0.1-0.4-0.2-0.5-0.3-1-0.5-1.6-0.8l-0.6-0.3c-0.7-0.3-1.3-0.6-2-0.8-0.7-0.3-1.4-0.5-2.1-0.7-0.2-0.1-0.4-0.1-0.6-0.2-0.6-0.2-1.1-0.3-1.7-0.4-0.2 0-0.3-0.1-0.5-0.1-0.7-0.2-1.5-0.3-2.2-0.4-0.2 0-0.3 0-0.5-0.1-0.6-0.1-1.2-0.1-1.8-0.2h-0.6c-0.8 0-1.5-0.1-2.3-0.1s-1.5 0-2.3 0.1h-0.6c-0.6 0-1.2 0.1-1.8 0.2-0.2 0-0.3 0-0.5 0.1-0.7 0.1-1.5 0.2-2.2 0.4-0.2 0-0.3 0.1-0.5 0.1-0.6 0.1-1.2 0.3-1.7 0.4-0.2 0.1-0.4 0.1-0.6 0.2-0.7 0.2-1.4 0.4-2.1 0.7-0.7 0.2-1.3 0.5-2 0.8l-0.6 0.3c-0.5 0.2-1.1 0.5-1.6 0.8-0.1 0.1-0.3 0.1-0.4 0.2-0.6 0.3-1.3 0.7-1.9 1.1-0.1 0.1-0.3 0.2-0.4 0.3-0.5 0.3-1 0.6-1.4 1-0.2 0.1-0.3 0.2-0.5 0.3-0.6 0.4-1.2 0.9-1.7 1.3s-1.1 0.9-1.6 1.4l-0.4 0.4-1.2 1.2-0.3 0.3c-0.5 0.5-1 1.1-1.4 1.6-0.1 0.1-0.2 0.3-0.3 0.4-0.4 0.4-0.7 0.9-1 1.4-0.1 0.2-0.2 0.3-0.3 0.5l-1.2 1.8v0.1c-0.4 0.6-0.7 1.2-1 1.8-2.6 5-4.1 10.7-4.1 16.7s1.5 11.7 4.1 16.7z"  horiz-adv-x="1024" />

    
    <glyph glyph-name="lfi043" unicode="&#59313;" d="M832 832H192c-17.7 0-32-14.3-32-32v-832c0-17.7 14.3-32 32-32h640c17.7 0 32 14.3 32 32V800c0 17.7-14.3 32-32 32z m-600-72h560v-208H232V760z m560-480H232V488h560v-208z m0-272H232V216h560v-208zM496 688H312c-4.4 0-8-3.6-8-8v-48c0-4.4 3.6-8 8-8h184c4.4 0 8 3.6 8 8v48c0 4.4-3.6 8-8 8zM312 352h184c4.4 0 8 3.6 8 8v48c0 4.4-3.6 8-8 8H312c-4.4 0-8-3.6-8-8v-48c0-4.4 3.6-8 8-8zM680 108m-40 0a40 40 0 1 1 80 0 40 40 0 1 1-80 0Z"  horiz-adv-x="1024" />

    
    <glyph glyph-name="lfi042" unicode="&#59334;" d="M894 434c30.9 0 43.8 39.7 18.7 58L530.8 769.8a31.81 31.81 0 0 1-37.6 0L111.3 492c-25.1-18.2-12.2-58 18.8-58H192v-374h-72c-4.4 0-8-3.6-8-8v-52c0-4.4 3.6-8 8-8h784c4.4 0 8 3.6 8 8v52c0 4.4-3.6 8-8 8h-72V434h62zM512 699.3l271.1-197.2H240.9L512 699.3zM264 434h117v-374H264V434z m189 0h117v-374H453V434z m307-374H642V434h118v-374z"  horiz-adv-x="1024" />

    
    <glyph glyph-name="lfi041" unicode="&#59342;" d="M864 160c0 111.6-65.4 208-160 252.9V578.7c0 15.1-5.3 29.7-15.1 41.2L536.5 800.6C530.1 808.2 521 812 512 812s-18.1-3.8-24.5-11.4L335.1 619.9c-9.7-11.5-15.1-26.1-15.1-41.2v-165.8C225.4 368 160 271.6 160 160h156.5c-2.3-7.2-3.5-15-3.5-23.8 0-22.1 7.6-43.7 21.4-60.8 11.3-14 26.2-24.6 43.1-30.6 23.1-54 75.6-88.8 134.5-88.8 29.1 0 57.3 8.6 81.4 24.8 23.6 15.8 41.9 37.9 53 64 16.9 6 31.8 16.5 43.1 30.5 13.8 17.2 21.4 38.8 21.4 60.8 0 8.4-1.1 16.4-3.1 23.8H864zM762.3 274.6c9.4-14.6 17-30.3 22.5-46.6H700V337.29999999999995c24.8-16.2 46.1-37.5 62.3-62.7zM388 412.9V577.2l124 147 124-147V228H388V412.9zM239.2 228c5.5 16.3 13.1 32 22.5 46.6 16.3 25.2 37.5 46.5 62.3 62.7V228h-84.8z m388.9-116.2c-5.2-3-11.2-4.2-17.1-3.4l-19.5 2.4-2.8-19.4c-5.4-37.9-38.4-66.5-76.7-66.5-38.3 0-71.3 28.6-76.7 66.5l-2.8 19.5-19.5-2.5c-1-0.1-2.1-0.2-3.3-0.2-4.9 0-9.6 1.3-13.8 3.7-8.7 5-14.1 14.3-14.1 24.4 0 10.6 5.9 19.4 14.6 23.8h231.3c8.8-4.5 14.6-13.3 14.6-23.8-0.1-10.2-5.5-19.6-14.2-24.5zM512 496m-48 0a48 48 0 1 1 96 0 48 48 0 1 1-96 0Z"  horiz-adv-x="1024" />

    
    <glyph glyph-name="lfi040" unicode="&#60451;" d="M320 96a32 32 0 0 0 0 64h384a32 32 0 0 0 0-64H320zM510.08 344.576c-0.032 0-0.032 0 0 0a95.584 95.584 0 0 0-74.208 35.072l-251.84 306.56a96.128 96.128 0 0 0-21.824 60.928c0 52.928 43.072 96 96 96h503.648c22.176 0 43.84-7.744 60.928-21.824a96.096 96.096 0 0 0 13.248-135.104l-251.808-306.56a95.968 95.968 0 0 0-74.144-35.072zM258.208 779.136a32.064 32.064 0 0 1-24.704-52.32l251.84-306.56c6.08-7.424 15.136-11.68 24.736-11.68a31.68 31.68 0 0 1 24.736 11.744l251.776 306.496a32.064 32.064 0 0 1-24.768 52.32H258.208zM864-64H160c-52.928 0-96 43.072-96 96V480c0 52.928 43.072 96 96 96h12.512v-64H160c-17.632 0-32-14.368-32-32v-448c0-17.664 14.368-32 32-32h704a32 32 0 0 1 32 32V480c0 17.632-14.336 32-32 32h-22.88v64H864c52.928 0 96-43.072 96-96v-448c0-52.928-43.072-96-96-96z"  horiz-adv-x="1024" />

    
    <glyph glyph-name="lfi039" unicode="&#60471;" d="M704 480H320a32 32 0 0 1 0-64h384a32 32 0 0 1 0 64zM704 288H320a32 32 0 0 1 0-64h384a32 32 0 0 1 0 64zM832 864H192C139.072 864 96 820.928 96 768v-768c0-52.928 43.072-96 96-96h640c52.928 0 96 43.072 96 96V768c0 52.928-43.072 96-96 96zM320 800h384v-96H320V800z m544-800a32 32 0 0 0-32-32H192c-17.632 0-32 14.336-32 32V768c0 17.632 14.368 32 32 32h64v-96c0-35.296 28.704-64 64-64h384c35.296 0 64 28.704 64 64V800h64c17.664 0 32-14.368 32-32v-768z"  horiz-adv-x="1024" />

    
    <glyph glyph-name="lfi038" unicode="&#60494;" d="M336 352C256.608 352 192 287.39200000000005 192 208S256.608 64 336 64s144 64.608 144 144-64.608 144-144 144z m0-224C291.904 128 256 163.87199999999996 256 208S291.904 288 336 288s80-35.872 80-80-35.904-80-80-80zM800 640h-211.424a32 32 0 1 1 0-64H800a32 32 0 1 1 0 64zM800 320h-211.424a32 32 0 1 1 0-64H800a32 32 0 1 1 0 64zM800 512h-211.424a32 32 0 1 1 0-64H800a32 32 0 1 1 0 64zM800 184h-211.424a32 32 0 1 1 0-64H800a32 32 0 1 1 0 64zM440 660.192l-120.992-148.608-71.04 80.352a32 32 0 0 1-47.936-42.4l71.008-80.352a63.648 63.648 0 0 1 48.032-21.632 63.36 63.36 0 0 1 49.536 23.584L489.6 619.808a32 32 0 0 1-49.6 40.384zM896 832H128c-35.296 0-64-28.704-64-64v-768c0-35.296 28.704-64 64-64h768c35.296 0 64 28.704 64 64V768c0 35.296-28.704 64-64 64zM128 0V768h768l0.064-768H128z"  horiz-adv-x="1024" />

    
    <glyph glyph-name="lfi037" unicode="&#60500;" d="M960 642.816l-448 192-448-192v-547.392l448-190.72 38.688 16.48h8.192v3.488L960 95.39200000000005V642.816z m-448-163.424l-113.536 48.32 318.944 147.2c0.736 0.352 1.216 0.992 1.92 1.408l127.232-54.528L512 479.392z m128.704 230.624l-321.696-148.48-141.568 60.288L512 765.184l128.704-55.168zM128 573.312l128-54.496V320a32 32 0 1 1 64 0v171.52l0.064 0.032 174.816-74.432v-435.584L128 137.72799999999995V573.312z m430.88-579.104V429.792L896 573.312v-435.616l-337.12-143.488z"  horiz-adv-x="1024" />

    
    <glyph glyph-name="lfi036" unicode="&#60528;" d="M160 0H96V768a64 64 0 0 0 64 64h384a64 64 0 0 0 64-64v-768h-64V768H160v-768zM864 416h64v-416h-64zM80-64a32 32 0 0 0 0 64H928a32 32 0 0 0 0-64H80zM971.648 413.824a32 32 0 0 0-23.296-59.648L564.16 504.16a32 32 0 0 0 23.264 59.616l384.256-149.952zM704.384 309.98400000000004a32 32 0 1 0 0-64h-128.64a32 32 0 0 0 0 64h128.64zM704.384 181.98400000000004a32 32 0 1 0 0-64h-128.64a32 32 0 0 0 0 64h128.64zM320 320a32 32 0 0 0-64 0v64a32 32 0 0 0 64 0v-64zM320 544a32 32 0 0 0-64 0V608a32 32 0 0 0 64 0v-64zM448 544a32 32 0 1 0-64 0V608a32 32 0 1 0 64 0v-64zM448 320a32 32 0 0 0-64 0v64a32 32 0 0 0 64 0v-64zM320-32H256v213.984h201.6V-32h-64v149.984H320z"  horiz-adv-x="1024" />

    
    <glyph glyph-name="lfi035" unicode="&#60553;" d="M966.208 649.248L534.144 874.592a47.968 47.968 0 0 1-44.128 0.128L58.08 652.864A47.968 47.968 0 0 1 32 610.1759999999999V151.36c0-18.208 10.304-34.848 26.592-42.976l432-215.36a48 48 0 0 1 42.816 0l432 215.36A48 48 0 0 1 992 151.32799999999997V606.656c0 17.92-9.952 34.304-25.792 42.592zM508.384 432.32l-162.176 79.808 367.36 196.704 158.4-82.624-363.584-193.888z m3.488 381.696l132.992-69.376-369.312-197.76-144.896 71.328 381.216 195.808zM96 563.904l153.216-75.392v-168.256a32 32 0 0 1 64 0v136.736L480 374.976v-405.184L96 161.24800000000005V563.904z m448-594.112V378.81600000000003l384 204.736v-422.304l-384-191.456z"  horiz-adv-x="1024" />

    
    <glyph glyph-name="lfi034" unicode="&#60558;" d="M858.016 250.36800000000005c-30.496-24.992-68.512-42.944-117.12-58.144-14.048-4.384-28.544-8.448-46.272-13.056-6.56-1.696-34.656-8.8-41.632-10.624a32 32 0 0 0-16.224 61.92c7.328 1.92 35.52 9.024 41.792 10.656a897.6 897.6 0 0 1 43.264 12.192c41.44 12.96 72.576 27.648 95.68 46.56 84.16 68.96 160.224 55.52 203.552-38.592l8.48-18.432-13.024-15.52C872.288 55.42399999999998 748.128-32 640-32l-548.256-15.2a32 32 0 0 0 0 64L640 32c80.96 0 186.72 72.512 313.664 220.16-22.72 37.312-49.088 36.32-95.648-1.792zM93.12 105.79200000000003a32 32 0 1 0-64 1.088L32.224 288l8.416 8.96c85.152 90.944 169.44 131.904 252.416 118.624 62.72-10.016 98.176-29.568 147.424-71.584l6.944-5.952c21.312-18.208 32.736-26.784 47.616-34.688 11.264-6.016 26.016-9.6 45.888-11.52 9.024-0.928 15.808-1.28 33.536-2.016 73.28-3.104 102.4-13.056 102.4-65.824 0-72-47.36-117.696-132.32-132.032-55.936-9.44-137.024 12.32-246.56 63.616a32 32 0 1 0 27.168 57.952c98.56-46.176 169.248-65.12 208.736-58.464 55.296 9.344 78.016 30.336 78.944 66.56-6.848 2.24-17.184 3.2-41.056 4.224a602.56 602.56 0 0 0-37.056 2.24c-27.488 2.688-49.856 8.16-69.76 18.784-20.096 10.688-34.496 21.472-59.104 42.528l-6.912 5.888c-41.088 35.072-66.784 49.248-116 57.12-56.224 8.96-118.464-19.84-187.168-90.368l-2.656-156.256zM224 526.2719999999999a32 32 0 1 0-64 0V672a64 64 0 0 0 64 64h608a64 64 0 0 0 64-64v-192a64 64 0 0 0-64-64H489.44a32 32 0 1 0 0 64H832V672H224v-145.728z"  horiz-adv-x="1029" />

    
    <glyph glyph-name="lfi033" unicode="&#59043;" d="M517.632 343.85066700000004c-108.714667 0-197.162667 85.546667-197.162667 190.72 0 38.314667 11.690667 75.306667 33.877334 106.922666C391.04 693.973333 452.138667 725.333333 517.632 725.333333c65.408 0 126.464-31.274667 163.2-83.712 7.765333-11.093333 14.250667-22.869333 19.413333-35.072a21.333333 21.333333 0 1 0-39.338666-16.64 147.285333 147.285333 0 0 1-15.018667 27.221334C617.130667 658.1759999999999 569.173333 682.666667 517.632 682.666667c-51.626667 0-99.584-24.533333-128.426667-65.621334a143.445333 143.445333 0 0 1-26.069333-82.432c0-81.664 69.290667-148.096 154.453333-148.096 63.402667 0 119.722667 36.437333 143.36 92.8a21.333333 21.333333 0 0 0 39.338667-16.512c-30.378667-72.277333-102.016-118.954667-182.656-118.954666M303.829333 268.544c-49.92 0-90.453333-41.088-90.453333-91.605333C213.333333 126.421333 253.866667 85.33333300000004 303.786667 85.33333300000004h416.341333C770.133333 85.33333300000004 810.666667 126.421333 810.666667 176.938667c0 50.517333-40.533333 91.605333-90.453334 91.605333H303.786667zM720.213333 42.66666699999996H303.829333C230.442667 42.66666699999996 170.709333 102.91200000000003 170.709333 176.938667 170.666667 250.965333 230.4 311.21066699999994 303.786667 311.21066699999994h416.341333C793.6 311.21066699999994 853.333333 250.965333 853.333333 176.938667 853.333333 102.91200000000003 793.6 42.66666699999996 720.213333 42.66666699999996z"  horiz-adv-x="1024" />

    
    <glyph glyph-name="lfi032" unicode="&#59044;" d="M723.712 468.181333a21.248 21.248 0 0 1-27.050667-13.312 204.8 204.8 0 0 0-88.96-109.653333 20.906667 20.906667 0 0 1-5.802666-5.290667 20.906667 20.906667 0 0 1-8.106667-16.384v-54.058666l-184.917333-23.04V323.49866699999995a21.290667 21.290667 0 0 1-2.389334 9.429333 21.376 21.376 0 0 1-9.642666 13.226667 203.178667 203.178667 0 0 0-98.133334 174.677333 204.672 204.672 0 0 0 204.373334 204.458667 204.714667 204.714667 0 0 0 197.546666-151.296 21.290667 21.290667 0 1 1 41.130667 11.093333A247.338667 247.338667 0 0 1 503.082667 767.9573330000001a247.381333 247.381333 0 0 1-247.04-247.125333c0-83.413333 41.130667-159.146667 110.165333-205.226667v-93.44a21.376 21.376 0 0 1 23.978667-21.162666l227.541333 28.458666a21.333333 21.333333 0 0 1 18.688 21.162667v62.848a247.04 247.04 0 0 1 100.608 127.616 21.333333 21.333333 0 0 1-13.312 27.050667M609.621333 172.373333l-215.125333-19.541333a21.376 21.376 0 0 1 1.92-42.624l1.962667 0.085333 215.125333 19.584a21.333333 21.333333 0 0 1 19.285333 23.168 20.992 20.992 0 0 1-23.168 19.328M548.309333 67.41333299999997l-94.208-12.501333a21.333333 21.333333 0 1 1 5.589334-42.24l94.208 12.416a21.333333 21.333333 0 1 1-5.546667 42.282667"  horiz-adv-x="1024" />

    
    <glyph glyph-name="lfi031" unicode="&#59047;" d="M829.525333 384a21.333333 21.333333 0 0 1 21.333334 21.333333V596.992C850.858667 644.2239999999999 813.653333 682.666667 767.829333 682.666667h-97.024A128.298667 128.298667 0 0 1 550.4 768a128.512 128.512 0 0 1-120.234667-85.333333H336.554667c-45.781333 0-83.029333-38.442667-83.029334-85.674667v-511.317333c0-47.232 37.248-85.674667 83.029334-85.674667h431.274666c45.781333 0 83.029333 38.442667 83.029334 85.674667V277.33333300000004a21.333333 21.333333 0 0 1-42.666667 0v-191.658666c0-23.722667-18.090667-43.008-40.362667-43.008H336.554667c-22.272 0-40.362667 19.285333-40.362667 43.008V596.992c0 23.722667 18.090667 43.008 40.362667 43.008H443.733333a20.992 20.992 0 0 1 12.842667 4.736 20.992 20.992 0 0 1 10.538667 13.781333A85.802667 85.802667 0 0 0 550.4 725.333333c40.448 0 75.605333-28.714667 83.669333-68.266666a21.333333 21.333333 0 0 1 20.906667-17.066667c0.853333 0 1.706667 0.170667 2.56 0.256 0.469333 0 0.853333-0.256 1.322667-0.256h108.970666c22.272 0 40.362667-19.285333 40.362667-43.008V405.333333a21.333333 21.333333 0 0 1 21.333333-21.333333M445.525333 448h213.333334a21.333333 21.333333 0 0 1 0 42.666667h-213.333334a21.333333 21.333333 0 0 1 0-42.666667M445.525333 320h213.333334a21.333333 21.333333 0 0 1 0 42.666667h-213.333334a21.333333 21.333333 0 0 1 0-42.666667M447.317333 192h213.333334a21.333333 21.333333 0 0 1 0 42.666667h-213.333334a21.333333 21.333333 0 0 1 0-42.666667"  horiz-adv-x="1066" />

    
    <glyph glyph-name="lfi030" unicode="&#59049;" d="M399.018667 630.7413329999999C399.018667 659.370667 422.314667 682.666667 450.986667 682.666667h166.4c28.586667 0 51.925333-23.296 51.925333-51.925334v-29.696H399.018667v29.696z m114.261333-321.706666v-24.32a21.290667 21.290667 0 1 1 42.666667 0v24.32H874.666667v-190.592c0-31.36-25.472-56.917333-56.874667-56.917334H248.917333A57.002667 57.002667 0 0 0 192 118.44266700000003V308.99199999999996h321.28z m382.72 125.952a21.333333 21.333333 0 0 1 21.333333 21.333333v45.226667a99.669333 99.669333 0 0 1-99.541333 99.498666h-105.813333v29.696A94.677333 94.677333 0 0 1 617.386667 725.333333h-166.4a94.72 94.72 0 0 1-94.634667-94.592v-29.696H248.917333A99.669333 99.669333 0 0 1 149.333333 501.504v-383.061333a99.712 99.712 0 0 1 99.584-99.584h568.874667A99.669333 99.669333 0 0 1 917.333333 118.44266700000003v210.346666a21.290667 21.290667 0 0 1-13.44 19.712 20.778667 20.778667 0 0 1-10.538666 3.157334H555.946667v38.997333a21.333333 21.333333 0 0 1-42.666667 0v-38.997333H192V501.504c0 31.36 25.557333 56.874667 56.917333 56.874667h568.874667c31.402667 0 56.874667-25.514667 56.874667-56.874667v-45.184a21.333333 21.333333 0 0 1 21.333333-21.333333z"  horiz-adv-x="1066" />

    
    <glyph glyph-name="lfi029" unicode="&#59050;" d="M512 714.538667L650.666667 556.672H373.376L512 714.538667z m321.792-349.866667a21.333333 21.333333 0 0 1 21.333333 21.333333V450.005333c0 58.794667-47.829333 106.666667-106.666666 106.666667h-40.96L528.042667 760.96C527.701333 761.386667 527.232 761.472 526.890667 761.8133330000001 526.592 762.154667 526.421333 762.581333 526.08 762.922667 525.312 763.605333 524.373333 763.818667 523.52 764.373333a19.925333 19.925333 0 0 1-3.584 2.048 19.2 19.2 0 0 1-4.010667 1.066667C514.602667 767.744 513.322667 768 512 768c-1.365333 0-2.645333-0.256-4.010667-0.512a21.290667 21.290667 0 0 1-3.925333-1.024 21.418667 21.418667 0 0 1-3.712-2.133333c-0.810667-0.554667-1.706667-0.768-2.432-1.408-0.341333-0.341333-0.469333-0.768-0.810667-1.066667-0.341333-0.341333-0.810667-0.512-1.152-0.853333L316.544 556.672H277.333333A106.794667 106.794667 0 0 1 170.666667 450.005333v-256C170.666667 135.168 218.496 87.33866699999999 277.333333 87.33866699999999h471.125334c58.837333 0 106.666667 47.829333 106.666666 106.666666V258.00533299999995a21.333333 21.333333 0 0 1-42.666666 0v-64c0-35.285333-28.714667-64-64-64H277.333333c-35.285333 0-64 28.714667-64 64v256C213.333333 485.290667 242.048 514.0053330000001 277.333333 514.0053330000001h471.125334c35.285333 0 64-28.714667 64-64V386.005333a21.333333 21.333333 0 0 1 21.333333-21.333333zM704 428.672h-384a21.333333 21.333333 0 0 1 0-42.666667h384a21.333333 21.333333 0 0 1 0 42.666667M725.333333 322.00533299999995a21.333333 21.333333 0 0 1-21.333333 21.333334h-384a21.333333 21.333333 0 0 1 0-42.666667h384a21.333333 21.333333 0 0 1 21.333333 21.333333M320 258.00533299999995a21.333333 21.333333 0 0 1 0-42.666666h170.666667a21.333333 21.333333 0 0 1 0 42.666666h-170.666667z"  horiz-adv-x="1024" />

    
    <glyph glyph-name="lfi028" unicode="&#59051;" d="M513.792 664.832l135.082667-210.346667-135.082667-95.573333-135.082667 95.573333 135.082667 210.346667z m323.413333-87.04c-1.066667 0.170667-2.133333-0.128-3.157333-0.085333a21.205333 21.205333 0 0 1-16.128-3.541334L683.733333 479.146667l-151.978666 236.629333-0.170667 0.213333c-0.896 1.28-2.218667 2.304-3.413333 3.413334-0.853333 0.853333-1.578667 1.92-2.602667 2.56l-0.213333 0.256c-0.981333 0.64-2.133333 0.768-3.072 1.194666-1.450667 0.64-2.858667 1.408-4.437334 1.706667-1.28 0.256-2.56 0.085333-3.882666 0.128-1.450667 0-2.858667 0.170667-4.309334-0.128-1.493333-0.298667-2.858667-1.066667-4.266666-1.706667-1.066667-0.426667-2.176-0.554667-3.157334-1.194666l-0.213333-0.213334c-1.066667-0.682667-1.834667-1.792-2.773333-2.688-1.109333-1.109333-2.389333-2.048-3.242667-3.328l-0.170667-0.213333L343.850667 479.146667 209.664 574.1653329999999a21.162667 21.162667 0 0 1-16.213333 3.413334c-1.706667 0.170667-3.242667 0.512-4.906667 0.213333a21.333333 21.333333 0 0 1-17.578667-24.533333l60.458667-366.208c0.128-0.938667 0.64-1.749333 0.938667-2.645334 0.341333-1.109333 0.64-2.176 1.152-3.242666a20.992 20.992 0 0 1 2.56-3.84c0.682667-0.853333 1.237333-1.706667 2.005333-2.346667a19.968 19.968 0 0 1 4.181333-2.816c0.810667-0.469333 1.493333-1.024 2.346667-1.365333a21.077333 21.077333 0 0 1 7.808-1.578667h520.917333a21.077333 21.077333 0 0 1 7.850667 1.578667c0.853333 0.341333 1.536 0.853333 2.346667 1.365333a19.968 19.968 0 0 1 4.181333 2.816c0.768 0.682667 1.28 1.536 1.962667 2.346667a20.992 20.992 0 0 1 2.56 3.84c0.554667 1.066667 0.853333 2.133333 1.194666 3.242666 0.298667 0.853333 0.810667 1.706667 0.938667 2.645334l14.677333 88.874666a21.333333 21.333333 0 0 1-42.069333 6.954667l-11.733333-70.997333H270.506667L220.586667 514.0906669999999l280.832-198.741334c0.384-0.298667 0.853333-0.170667 1.28-0.426666 3.413333-2.133333 7.125333-3.498667 11.050666-3.498667a21.248 21.248 0 0 1 11.050667 3.498667c0.384 0.256 0.853333 0.128 1.28 0.426666l278.784 197.333334-16.768-101.76a21.333333 21.333333 0 1 1 42.069333-6.954667l24.618667 149.290667a21.333333 21.333333 0 0 1-17.578667 24.533333zM791.125333 85.63199999999995h-554.666666a21.333333 21.333333 0 0 1 0-42.666667h554.666666a21.333333 21.333333 0 0 1 0 42.666667"  horiz-adv-x="1024" />

    
    <glyph glyph-name="lfi026" unicode="&#59056;" d="M517.632 343.85066700000004c80.64 0 152.32 46.677333 182.698667 118.954666a21.162667 21.162667 0 0 1 1.408 6.784 21.290667 21.290667 0 0 1-19.541334 29.866667h-188.202666a21.333333 21.333333 0 1 1 0-42.666667h154.965333c-27.818667-43.264-76.885333-70.272-131.328-70.272-85.162667 0-154.453333 66.432-154.453333 148.053334 0 29.568 9.045333 58.026667 26.026666 82.432A156.416 156.416 0 0 0 517.674667 682.666667c51.541333 0 99.498667-24.490667 128.298666-65.578667 5.973333-8.533333 11.050667-17.621333 15.018667-27.136a21.333333 21.333333 0 0 1 39.338667 16.597333 189.141333 189.141333 0 0 1-19.456 35.072C644.096 694.058667 583.04 725.333333 517.632 725.333333c-65.450667 0-126.506667-31.317333-163.285333-83.84a185.429333 185.429333 0 0 1-33.834667-106.88c0-105.216 88.405333-190.762667 197.12-190.762666M720.170667 85.33333300000004H303.872C253.952 85.33333300000004 213.333333 126.421333 213.333333 176.938667c0 50.517333 40.618667 91.605333 90.538667 91.605333h416.298667c49.92 0 90.453333-41.088 90.453333-91.605333C810.666667 126.421333 770.133333 85.33333300000004 720.213333 85.33333300000004m0 225.877334H303.872C230.4 311.21066699999994 170.666667 250.965333 170.666667 176.938667 170.666667 102.91200000000003 230.4 42.66666699999996 303.872 42.66666699999996h416.298667c73.386667 0 133.12 60.245333 133.12 134.272C853.333333 250.965333 793.6 311.21066699999994 720.213333 311.21066699999994"  horiz-adv-x="1024" />

    
    <glyph glyph-name="lfi025" unicode="&#59058;" d="M243.498667 565.717333v-405.162666A41.258667 41.258667 0 0 0 213.333333 199.97866699999997V640.853333c0 23.04 18.688 41.813333 41.728 41.813334h440.96c19.797333 0 35.626667-14.165333 39.893334-32.597334H327.936a84.565333 84.565333 0 0 1-84.437333-84.394666M832 422.442667a21.333333 21.333333 0 0 1 21.333333 21.333333V565.6320000000001a84.266667 84.266667 0 0 1-73.685333 83.370667 84.266667 84.266667 0 0 1-83.626667 76.288H255.061333C208.554667 725.333333 170.666667 687.445333 170.666667 640.896v-440.917333c0-42.922667 32.213333-78.037333 73.642666-83.370667A84.266667 84.266667 0 0 1 327.936 40.32000000000005H768.853333A84.48 84.48 0 0 1 853.333333 124.79999999999995v191.018667a21.333333 21.333333 0 0 1-42.666666 0v-191.018667a41.813333 41.813333 0 0 0-41.813334-41.728H327.936a41.728 41.728 0 0 0-41.770667 41.728V565.717333a41.813333 41.813333 0 0 0 41.770667 41.728H768.853333a41.813333 41.813333 0 0 0 41.813334-41.728v-121.984a21.333333 21.333333 0 0 1 21.333333-21.333333M434.602667 536.3199999999999a21.333333 21.333333 0 0 1-21.333334-21.333333v-77.568c0-73.685333 60.458667-133.632 134.741334-133.632 74.325333 0 134.784 59.946667 134.784 133.632V514.986667a21.333333 21.333333 0 1 1-42.666667 0v-77.525334c0-50.176-41.301333-90.965333-92.16-90.965333-50.773333 0-92.032 40.789333-92.032 90.965333V514.986667a21.333333 21.333333 0 0 1-21.333333 21.333333"  horiz-adv-x="1024" />

    
    <glyph glyph-name="lfi023" unicode="&#59061;" d="M373.333333 64a32 32 0 1 1 0-64 32 32 0 0 1 0 64M650.666667 64a32 32 0 1 1 0-64 32 32 0 0 1 0 64M828.202667 340.13866700000005a21.333333 21.333333 0 0 1-27.178667-13.098667A169.130667 169.130667 0 0 0 641.877333 213.33333300000004H290.56l-26.282667 341.333334h377.642667a169.130667 169.130667 0 0 0 159.232-113.92 21.333333 21.333333 0 0 1 40.277333 14.08A211.882667 211.882667 0 0 1 641.877333 597.333333H260.949333L255.914667 662.997333C255.829333 663.893333 255.317333 664.704 255.146667 665.557333 254.762667 667.434667 254.421333 669.141333 253.653333 670.72c-0.384 0.682667-0.853333 1.28-1.28 1.92a20.138667 20.138667 0 0 1-3.84 4.650667C247.893333 677.802667 247.168 678.1013330000001 246.485333 678.613333a19.413333 19.413333 0 0 1-4.565333 2.56C240.426667 681.8133330000001 238.933333 681.941333 237.397333 682.154667 236.458667 682.24 235.690667 682.666667 234.666667 682.666667h-42.666667a21.290667 21.290667 0 1 1 0-42.666667h22.912l41.173333-534.954667c0.085333-1.28 0.64-2.389333 0.981334-3.584 0.298667-1.28 0.426667-2.474667 0.938666-3.626666 0.682667-1.450667 1.706667-2.688 2.688-3.925334 0.64-0.853333 1.109333-1.792 1.877334-2.56 1.322667-1.28 2.858667-2.133333 4.437333-2.986666 0.768-0.426667 1.408-1.024 2.218667-1.365334a20.48 20.48 0 0 1 8.106666-1.706666h469.333334a21.333333 21.333333 0 0 1 0 42.666666H297.045333l-3.285333 42.666667h348.16a211.925333 211.925333 0 0 1 199.381333 142.336 21.333333 21.333333 0 0 1-13.098666 27.178667M641.792 490.666667H423.125333a21.333333 21.333333 0 0 1 0-42.666667h218.666667a21.333333 21.333333 0 0 1 0 42.666667M641.792 405.333333H423.125333a21.333333 21.333333 0 0 1 0-42.666666h218.666667a21.333333 21.333333 0 0 1 0 42.666666M641.792 318.250667H423.125333a21.333333 21.333333 0 0 1 0-42.666667h218.666667a21.333333 21.333333 0 0 1 0 42.666667"  horiz-adv-x="1024" />

    
    <glyph glyph-name="lfi022" unicode="&#59062;" d="M373.333333 64a32 32 0 1 1 0-64 32 32 0 0 1 0 64M650.666667 64a32 32 0 1 1 0-64 32 32 0 0 1 0 64M827.776 338.304a21.205333 21.205333 0 0 1-27.306667-12.8 169.514667 169.514667 0 0 0-158.634666-112.213333H290.56l-26.282667 341.333333h377.6a169.258667 169.258667 0 0 0 159.274667-113.834667 21.333333 21.333333 0 0 1 40.277333 14.037334A211.968 211.968 0 0 1 641.834667 597.333333H260.992L255.914667 662.997333c-0.085333 1.28-0.682667 2.346667-0.981334 3.541334-0.298667 1.237333-0.512 2.56-1.024 3.712a20.906667 20.906667 0 0 1-2.773333 4.096C250.496 675.157333 250.026667 676.0533330000001 249.258667 676.6933329999999a19.2 19.2 0 0 1-4.096 2.773334C244.224 680.064 243.370667 680.746667 242.346667 681.130667c-1.365333 0.512-2.858667 0.64-4.352 0.853333C236.842667 682.24 235.861333 682.666667 234.666667 682.666667h-42.666667a21.290667 21.290667 0 1 1 0-42.666667h22.912l41.130667-534.954667c0.128-1.365333 0.682667-2.56 1.024-3.84 0.298667-1.109333 0.469333-2.304 0.938666-3.328 0.682667-1.493333 1.706667-2.688 2.645334-3.968 0.682667-0.853333 1.152-1.792 1.92-2.56 1.28-1.194667 2.773333-2.005333 4.266666-2.858666 0.853333-0.469333 1.493333-1.152 2.389334-1.536A21.248 21.248 0 0 1 277.333333 85.33333300000004h469.333334a21.333333 21.333333 0 0 1 0 42.666667H297.088l-3.285333 42.666667h348.032a212.266667 212.266667 0 0 1 198.741333 140.330666 21.333333 21.333333 0 0 1-12.8 27.306667M620.416 378.66666699999996a21.333333 21.333333 0 0 1 0 42.666666h-62.549333l-0.085334 0.170667 56.832 53.632a21.333333 21.333333 0 0 1-29.226666 31.061333l-49.834667-47.018666-49.792 47.018666a21.333333 21.333333 0 0 1-29.269333-31.061333l56.96-53.802667h-63.701334a21.333333 21.333333 0 0 1 0-42.666666h65.792v-16h-65.792a21.333333 21.333333 0 0 1 0-42.666667h65.792v-44.458667a21.333333 21.333333 0 1 1 42.666667 0V320h62.208a21.333333 21.333333 0 0 1 0 42.666667h-62.165333v16h62.165333z"  horiz-adv-x="1024" />

    
    <glyph glyph-name="lfi021" unicode="&#59076;" d="M846.600533 443.818667L507.1872 762.410667A20.906667 20.906667 0 0 1 490.6752 767.8720000000001a21.034667 21.034667 0 0 1-16.512-5.461333L134.749867 443.818667a21.290667 21.290667 0 1 1 29.184-31.104l9.642666 9.002666v-279.808A100.138667 100.138667 0 0 1 273.757867 42.026666999999975h433.877333a100.181333 100.181333 0 0 1 100.224 99.882666v71.594667a21.333333 21.333333 0 0 1-42.666667 0v-71.594667c0-31.530667-25.856-57.216-57.6-57.216H273.800533a57.429333 57.429333 0 0 0-57.514666 57.216V461.781333L490.6752 719.36l274.474667-257.621333v-120.234667a21.290667 21.290667 0 1 1 42.666666 0V421.674667l9.557334-8.96a21.12 21.12 0 0 1 30.122666 0.938666 21.290667 21.290667 0 0 1-0.938666 30.165334M386.0992 320.170667h213.034667c35.285333 0 64 28.714667 64 64s-28.714667 64-64 64h-256a21.333333 21.333333 0 0 1 0-42.666667h256a21.333333 21.333333 0 0 0 0-42.666667H386.0992c-35.285333 0-64-28.714667-64-64s28.714667-64 64-64h252.16a21.333333 21.333333 0 1 1 0 42.666667h-252.16a21.333333 21.333333 0 0 0 0 42.666667"  horiz-adv-x="1024" />

    
    <glyph glyph-name="lfi024" unicode="&#59075;" d="M491.329707 227.45600000000002c-45.824 7.68-91.306667 43.52-91.306667 98.816V419.84l90.325333 20.224 92.16-20.309333v-103.808c-0.170667-0.810667-0.682667-1.493333-0.768-2.304-6.4-50.218667-50.773333-79.488-90.410666-86.186667m115.242666 230.698667l-110.72 24.405333c-0.768 0.170667-1.536 0-2.304 0-1.237333 0.256-2.56 0.042667-3.84 0.042667-0.810667 0-1.706667 0.128-2.517333 0-0.853333-0.128-1.621333 0.085333-2.474667-0.085334l-108.8-24.405333c-1.024-0.213333-1.792-0.853333-2.730666-1.194667a21.077333 21.077333 0 0 1-15.786667-20.224v-114.474666c0-1.493333 0.512-2.773333 0.853333-4.181334 4.394667-75.861333 67.157333-124.501333 129.877334-133.461333a23.552 23.552 0 0 1 3.029333-0.213333l0.128 0.042666h0.128a24.106667 24.106667 0 0 1 3.029333 0.170667c53.930667 7.722667 115.285333 47.488 128 116.394667a20.949333 20.949333 0 0 1 2.730667 9.984v125.738666a21.034667 21.034667 0 0 1-15.786667 20.224c-0.981333 0.426667-1.792 1.024-2.816 1.28M846.913707 443.818667L507.457707 762.410667a20.864 20.864 0 0 1-16.384 5.461333 20.992 20.992 0 0 1-16.64-5.461333L135.105707 443.818667a21.290667 21.290667 0 1 1 29.184-31.104l9.6 8.96v-279.765334A100.138667 100.138667 0 0 1 274.028373 42.026666999999975h433.877334a100.181333 100.181333 0 0 1 100.224 99.882666v71.552a21.333333 21.333333 0 0 1-42.666667 0v-71.552c0-31.530667-25.856-57.216-57.6-57.216H274.07104a57.429333 57.429333 0 0 0-57.514667 57.216V461.738667L490.988373 719.36l274.474667-257.578667v-120.32a21.333333 21.333333 0 1 1 42.666667 0V421.717333l9.6-9.002666a21.12 21.12 0 0 1 30.122666 0.938666 21.290667 21.290667 0 0 1-0.938666 30.165334"  horiz-adv-x="1024" />

    
    <glyph glyph-name="lfi020" unicode="&#59086;" d="M832 426.197333a21.333333 21.333333 0 0 0-21.333333 21.333334V632.7893329999999A49.92 49.92 0 0 1 760.832 682.666667H682.24v-63.530667a21.333333 21.333333 0 0 0-21.333333-21.333333h-298.666667a21.290667 21.290667 0 0 0-21.333333 21.333333V682.666667H263.210667A49.92 49.92 0 0 1 213.333333 632.7893329999999V256h597.333334v63.530667a21.333333 21.333333 0 1 0 42.666666 0v-184.32A92.629333 92.629333 0 0 0 760.832 42.66666699999996H263.210667A92.629333 92.629333 0 0 0 170.666667 135.21066699999994V632.7893329999999C170.666667 683.818667 212.181333 725.333333 263.210667 725.333333h497.621333C811.818667 725.333333 853.333333 683.818667 853.333333 632.7893329999999v-185.258666a21.333333 21.333333 0 0 0-21.333333-21.333334zM383.573333 640.469333h256V682.666667h-256v-42.197334zM213.333333 170.66666699999996h597.333334v42.666666H213.333333v-42.666666z m547.498667-85.333334c24.917333 0 44.757333 18.730667 48.384 42.666667H214.784c3.626667-23.936 23.466667-42.666667 48.426667-42.666667h497.621333z"  horiz-adv-x="1024" />

    
    <glyph glyph-name="lfi019" unicode="&#59090;" d="M832 424.874667a21.333333 21.333333 0 0 1 21.333333 21.333333V675.626667a21.034667 21.034667 0 0 1-17.322666 20.48c-1.578667 0.810667-2.986667 1.706667-4.778667 2.133333L516.565333 767.488a20.48 20.48 0 0 1-8.661333 0.085333C505.984 767.744 504.021333 767.914667 502.016 767.488L192.682667 698.197333c-1.792-0.426667-3.2-1.322667-4.736-2.133333a21.034667 21.034667 0 0 1-17.28-20.48v-325.333333c0-1.408 0.554667-2.645333 0.810666-3.968 8.32-198.101333 173.44-324.906667 337.066667-348.288A24.106667 24.106667 0 0 1 511.573333-2.218666999999982l0.426667 0.085334 0.426667-0.085334a24.106667 24.106667 0 0 1 3.029333 0.213334c144.512 20.693333 310.912 128.853333 334.976 317.568a21.333333 21.333333 0 0 1-42.368 5.376c-21.034667-165.461333-167.68-260.906667-296.021333-280.234667C363.178667 63.01866700000005 213.333333 179.96799999999996 213.333333 361.81333299999994V659.072l296.064 66.389333L810.666667 659.072V446.208a21.333333 21.333333 0 0 1 21.333333-21.333333M533.333333 583.082667a21.333333 21.333333 0 0 1-42.666666 0v-254.208a21.333333 21.333333 0 0 1 42.666666 0V583.082667zM512 264.87466700000004a21.333333 21.333333 0 0 1-21.333333-21.333334v-42.666666a21.333333 21.333333 0 0 1 42.666666 0v42.666666a21.333333 21.333333 0 0 1-21.333333 21.333334"  horiz-adv-x="1024" />

    
    <glyph glyph-name="lfi018" unicode="&#59096;" d="M895.488 342.82666700000004a20.053333 20.053333 0 0 1-24.96 13.696l-67.541333-19.584a19.797333 19.797333 0 0 1-10.922667-8.234667 20.138667 20.138667 0 0 1-4.394667-8.234667 274.133333 274.133333 0 0 0-37.504-87.850666 19.968 19.968 0 0 1 1.365334-23.424l29.013333-49.92-43.52-43.52-52.010667 30.037333a19.84 19.84 0 0 1-15.488 1.834667 19.541333 19.541333 0 0 1-9.984-2.474667 281.557333 281.557333 0 0 0-83.498666-33.365333 20.053333 20.053333 0 0 1-17.152-14.762667l-15.530667-57.898667H481.834667l-15.573334 58.453334a20.138667 20.138667 0 0 1-17.152 14.72l-0.341333 0.213333a279.296 279.296 0 0 0-86.442667 36.48c-1.194667 0.768-2.517333 0.981333-3.797333 1.493333-0.725333 0.213333-1.365333 0.597333-2.133333 0.768a18.944 18.944 0 0 1-6.912 0.469334c-0.128 0-0.256 0.085333-0.341334 0a19.413333 19.413333 0 0 1-9.813333-3.84l-49.664-28.629334-43.477333 43.52 30.336 52.309334a19.925333 19.925333 0 0 1-2.474667 23.168c-0.128 0.341333-0.128 0.597333-0.298667 0.853333a275.626667 275.626667 0 0 0-33.365333 81.365333c-0.213333 0.981333-0.853333 1.706667-1.237333 2.688a19.797333 19.797333 0 0 1-13.738667 13.909334l-57.130667 15.530666V414.208l57.173334 15.530667a20.053333 20.053333 0 0 1 14.634666 17.237333c0.128 0.426667 0.597333 0.597333 0.682667 1.109333a274.048 274.048 0 0 0 36.010667 84.48c0.853333 1.28 1.109333 2.730667 1.621333 4.181334 0.426667 1.024 0.938667 1.92 1.152 2.986666 0.085333 0.426667 0.042667 0.853333 0.085333 1.28a19.712 19.712 0 0 1-2.133333 13.269334l-29.994667 52.053333 43.52 43.434667 52.352-30.378667a19.541333 19.541333 0 0 1 10.069334-2.730667 20.096 20.096 0 0 1 10.794666 3.498667c1.066667 0.426667 2.218667 0.256 3.242667 0.938667a279.381333 279.381333 0 0 0 82.944 33.706666 19.669333 19.669333 0 0 1 6.016 2.688 18.346667 18.346667 0 0 1 5.034667 4.565334 19.285333 19.285333 0 0 1 2.133333 3.157333c0.768 1.408 2.218667 2.304 2.645333 3.968l15.573334 58.496h61.525333l15.530667-57.941333c0.469333-1.706667 2.005333-2.688 2.901333-4.266667a14.848 14.848 0 0 1 1.706667-2.56c1.749333-2.133333 3.456-3.84 5.888-5.12a20.906667 20.906667 0 0 1 5.546666-2.389333c31.189333-6.826667 60.714667-18.858667 87.808-35.669334 0.597333-0.341333 1.28-0.213333 1.834667-0.554666a20.053333 20.053333 0 0 1 10.666667-3.370667 19.84 19.84 0 0 1 10.112 2.816l52.352 30.293333 43.52-43.477333L751.146667 553.472a19.669333 19.669333 0 0 1-0.341334-18.602667c0.469333-1.365333 0.725333-2.730667 1.493334-3.968 16.213333-25.642667 27.946667-53.589333 34.986666-82.816 0.213333-1.152 1.28-1.706667 1.706667-2.730666a19.968 19.968 0 0 1 13.952-15.530667l67.541333-19.584a20.181333 20.181333 0 0 1 11.221334 38.741333l-58.026667 16.768a314.112 314.112 0 0 1-32.213333 76.885334l32.341333 56.064a19.925333 19.925333 0 0 1-4.522667 25.045333c-0.426667 0.554667-0.682667 1.28-1.194666 1.792L757.76 685.866667c-0.512 0.554667-1.237333 0.768-1.834667 1.28a19.754667 19.754667 0 0 1-25.002666 4.394666l-56.448-32.725333a318.293333 318.293333 0 0 1-79.616 32.426667l-16.597334 61.781333a20.010667 20.010667 0 0 1-20.693333 14.506667c-0.768 0.085333-1.493333 0.469333-2.346667 0.469333h-85.333333c-0.810667 0-1.536-0.384-2.346667-0.426667a19.882667 19.882667 0 0 1-20.650666-14.549333l-16.64-62.549333a318.165333 318.165333 0 0 1-75.733334-30.933334l-56.704 32.853334a19.797333 19.797333 0 0 1-25.002666-4.394667c-0.597333-0.554667-1.28-0.768-1.877334-1.28L210.602667 626.432c-0.597333-0.597333-0.810667-1.365333-1.28-2.048a19.84 19.84 0 0 1-4.437334-24.832l32.298667-56.021333a313.301333 313.301333 0 0 1-32.853333-77.781334l-61.44-16.64a19.882667 19.882667 0 0 1-14.464-20.821333c-0.085333-0.768-0.426667-1.408-0.426667-2.218667v-85.333333c0-0.768 0.341333-1.450667 0.426667-2.176a19.882667 19.882667 0 0 1 14.421333-20.821333l61.568-16.682667c7.168-26.581333 17.578667-51.968 31.36-75.818667L203.52 169.47199999999998a19.925333 19.925333 0 0 1 4.437333-24.96c0.512-0.597333 0.725333-1.28 1.28-1.834667l60.330667-60.330666c0.853333-0.853333 1.92-1.28 2.858667-1.962667 3.84-3.84 8.618667-6.570667 13.909333-6.570667 3.413333 0 6.869333 0.896 10.026667 2.730667l55.978666 32.256a318.549333 318.549333 0 0 1 77.909334-32.597333l16.64-62.421334A20.096 20.096 0 0 1 466.346667-1.1946669999999813c0.682667 0 1.408 0.213333 2.133333 0.256 0.469333 0 0.896-0.256 1.408-0.256h85.333333c0.512 0 0.938667 0.256 1.450667 0.256 0.725333-0.085333 1.450667-0.256 2.133333-0.256a20.181333 20.181333 0 0 1 19.456 14.933334l16.64 61.781333a321.152 321.152 0 0 1 77.354667 31.104l58.026667-33.493333a20.181333 20.181333 0 0 1 10.026666-2.730667 19.882667 19.882667 0 0 1 13.781334 6.442667c0.981333 0.725333 2.133333 1.109333 2.986666 2.005333l60.330667 60.330667c0.554667 0.597333 0.768 1.28 1.28 1.877333a19.797333 19.797333 0 0 1 4.437333 24.96l-32.768 56.533333a316.074667 316.074667 0 0 1 33.28 78.506667l58.112 16.853333a20.138667 20.138667 0 0 1 13.738667 24.96M618.368 490.069333H399.701333a21.333333 21.333333 0 0 1 0-42.666666h218.666667a21.333333 21.333333 0 0 1 0 42.666666M618.368 404.736H399.701333a21.333333 21.333333 0 0 1 0-42.666667h218.666667a21.333333 21.333333 0 0 1 0 42.666667M618.368 317.61066700000003H399.701333a21.333333 21.333333 0 0 1 0-42.666667h218.666667a21.333333 21.333333 0 0 1 0 42.666667"  horiz-adv-x="1024" />

    
    <glyph glyph-name="lfi017" unicode="&#59102;" d="M735.658667 725.333333H288.298667A117.76 117.76 0 0 1 170.666667 607.701333v-447.402666a117.76 117.76 0 0 1 117.632-117.632H405.333333a21.333333 21.333333 0 0 1 0 42.666666H288.298667A75.050667 75.050667 0 0 0 213.333333 160.29866700000002V607.701333c0 41.344 33.621333 74.965333 74.965334 74.965334h447.36c41.386667 0 75.008-33.621333 75.008-74.965334v-289.493333a21.333333 21.333333 0 1 1 42.666666 0V607.701333A117.76 117.76 0 0 1 735.658667 725.333333M516.266667 624.384l-133.461334-128.853333L332.8 547.370667a21.333333 21.333333 0 0 1-30.72-29.653334L366.933333 450.56a21.205333 21.205333 0 0 1 30.165334-0.512l148.821333 143.616a21.333333 21.333333 0 1 1-29.653333 30.677333M704 510.208a21.333333 21.333333 0 0 1 0 42.666667h-126.250667a21.333333 21.333333 0 0 1 0-42.666667H704zM321.749333 172.458667h170.666667a21.333333 21.333333 0 0 1 0 42.666666h-170.666667a21.333333 21.333333 0 0 1 0-42.666666M300.416 360.87466700000004a21.333333 21.333333 0 0 1 21.333333-21.333334H704a21.333333 21.333333 0 0 1 0 42.666667H321.749333a21.333333 21.333333 0 0 1-21.333333-21.333333M844.885333 237.52533300000005c-1.706667 1.408-3.541333 2.176-5.418666 2.986667a20.821333 20.821333 0 0 1-10.282667 3.029333h-65.109333a21.333333 21.333333 0 0 1 0-42.666666h21.589333l-70.613333-83.029334-100.821334 80.469334a21.333333 21.333333 0 0 1-29.013333-2.218667l-108.501333-117.888a21.418667 21.418667 0 0 1 15.701333-35.797333c5.76 0 11.52 2.304 15.701333 6.869333l95.061334 103.296 101.418666-80.981333c9.045333-7.168 22.101333-5.973333 29.525334 2.858666L810.666667 164.39466700000003v-10.112a21.333333 21.333333 0 1 1 42.666666 0v65.066666a20.949333 20.949333 0 0 1-2.773333 9.984 21.034667 21.034667 0 0 1-5.674667 8.192"  horiz-adv-x="1024" />

    
    <glyph glyph-name="lfi016" unicode="&#59101;" d="M656 85.33333300000004H348.416a49.92 49.92 0 0 0-49.834667 49.877334V632.7893329999999A49.92 49.92 0 0 0 348.416 682.666667H759.466667a49.92 49.92 0 0 0 49.877333-49.877334v-185.258666a21.333333 21.333333 0 1 1 42.666667 0V632.7893329999999A92.629333 92.629333 0 0 1 759.466667 725.333333H348.416a92.629333 92.629333 0 0 1-92.501333-92.544v-497.578666c0-51.029333 41.514667-92.544 92.501333-92.544h307.584a21.333333 21.333333 0 0 1 0 42.666666M426.666667 596.906667a21.333333 21.333333 0 0 1-21.333334-21.333334v-87.466666c0-81.706667 66.986667-148.138667 149.333334-148.138667s149.333333 66.432 149.333333 148.096V575.573333a21.333333 21.333333 0 0 1-42.666667 0v-87.466666c0-58.112-47.829333-105.386667-106.666666-105.386667s-106.666667 47.274667-106.666667 105.386667V575.573333a21.333333 21.333333 0 0 1-21.333333 21.333334M831.445333 156.03200000000004H760.661333v22.058667h70.826667a21.333333 21.333333 0 1 1 0 42.666666h-70.826667v3.754667l62.890667 59.392a21.333333 21.333333 0 0 1-29.312 31.018667L737.834667 261.63199999999995 681.386667 314.965333a21.333333 21.333333 0 1 1-29.226667-31.018666L717.994667 221.73866699999996v-0.981334H643.242667a21.333333 21.333333 0 0 1 0-42.666666h74.752V156.03200000000004H643.242667a21.333333 21.333333 0 0 1 0-42.666667h74.752v-51.2a21.290667 21.290667 0 1 1 42.666666 0V113.36533299999996h70.826667a21.333333 21.333333 0 0 1 0 42.666667M192 636.885333a21.333333 21.333333 0 0 1-21.333333-21.333333v-467.541333a21.333333 21.333333 0 0 1 42.666666 0V615.552a21.333333 21.333333 0 0 1-21.333333 21.333333"  horiz-adv-x="1024" />

    
    <glyph glyph-name="lfi015" unicode="&#59103;" d="M832 492.501333a21.333333 21.333333 0 0 1 21.333333 21.333334V619.264A106.24 106.24 0 0 1 747.136 725.333333H276.864A106.24 106.24 0 0 1 170.666667 619.264v-342.528A106.24 106.24 0 0 1 276.864 170.66666699999996h470.272A106.24 106.24 0 0 1 853.333333 276.736V384a21.333333 21.333333 0 0 1-42.666666 0v-107.264A63.573333 63.573333 0 0 0 747.136 213.33333300000004H276.864A63.573333 63.573333 0 0 0 213.333333 276.736V619.264A63.573333 63.573333 0 0 0 276.864 682.666667h470.272A63.573333 63.573333 0 0 0 810.666667 619.264v-105.429333a21.333333 21.333333 0 0 1 21.333333-21.333334M792.917333 85.33333300000004H232.917333a21.333333 21.333333 0 0 1 0-42.666666h560a21.333333 21.333333 0 0 1 0 42.666666M438.869333 393.258667c0 40.832 33.237333 74.069333 74.069334 74.069333 40.874667 0 74.112-33.28 74.112-74.069333v-71.722667h-148.181334v71.68z m-57.6-114.389334h263.381334a21.333333 21.333333 0 0 1 0 42.666667h-14.933334v71.68a116.906667 116.906667 0 0 1-116.778666 116.778667 116.906667 116.906667 0 0 1-116.736-116.736v-71.722667h-14.933334a21.333333 21.333333 0 1 1 0-42.666667zM411.221333 507.562667a21.418667 21.418667 0 0 1 15.104 36.437333L389.973333 580.266667a21.333333 21.333333 0 0 1-30.165333-30.208l36.266667-36.266667a21.418667 21.418667 0 0 1 15.104-6.272M302.293333 450.048a21.333333 21.333333 0 0 1 21.333334-21.333333h51.285333a21.333333 21.333333 0 1 1 0 42.666666H323.626667a21.333333 21.333333 0 0 1-21.333334-21.333333M724.309333 450.048a21.333333 21.333333 0 0 1-21.333333 21.333333h-51.328a21.333333 21.333333 0 0 1 0-42.666666h51.328a21.333333 21.333333 0 0 1 21.333333 21.333333M613.12 507.562667a21.418667 21.418667 0 0 1 15.061333 6.186666l36.266667 36.309334a21.333333 21.333333 0 0 1-30.165333 30.165333l-36.266667-36.266667a21.418667 21.418667 0 0 1 15.061333-36.437333M535.04 547.8399999999999V599.125333a21.333333 21.333333 0 1 1-42.666667 0V547.8399999999999a21.333333 21.333333 0 0 1 42.666667 0"  horiz-adv-x="1024" />

    
    <glyph glyph-name="lfi014" unicode="&#59110;" d="M552.96 384a39.168 39.168 0 1 0-78.250667 0.042667 39.168 39.168 0 0 0 78.293334-0.042667m-120.917334 0a81.92 81.92 0 0 1 81.792-81.792A81.92 81.92 0 0 1 595.626667 384a81.92 81.92 0 0 1-81.792 81.792A81.92 81.92 0 0 1 432.085333 384M793.173333 85.16266700000006h-119.466666a21.333333 21.333333 0 0 1 0-42.666667h119.466666a21.333333 21.333333 0 0 1 0 42.666667M731.648 268.629333a34.133333 34.133333 0 1 1 0-68.266666 34.133333 34.133333 0 0 1 0 68.266666M731.648 136.362667c-44.714667 0-81.066667 36.394667-81.066667 81.066666s36.352 81.066667 81.066667 81.066667a81.066667 81.066667 0 1 0 0-162.133333m0 204.8c-68.266667 0-123.733333-55.466667-123.733333-123.733334 0-68.224 55.466667-123.733333 123.733333-123.733333a123.818667 123.818667 0 0 1 119.893333 154.666667 123.733333 123.733333 0 0 1-119.893333 92.8M876.672 407.338667h-74.453333a287.274667 287.274667 0 0 1-266.88 264.96V746.666667a21.333333 21.333333 0 0 1-42.666667 0v-74.538667a287.402667 287.402667 0 0 1-262.869333-264.789333H149.333333a21.333333 21.333333 0 0 1 0-42.666667h80.426667a285.184 285.184 0 0 1 262.912-264.661333V21.33333300000004a21.333333 21.333333 0 0 1 42.666667 0v76.202667c13.098667 0.853333 26.112 2.389333 38.954666 5.034667a21.333333 21.333333 0 1 1-8.661333 41.770666 241.536 241.536 0 0 0-30.293333-4.138666v74.538666a21.333333 21.333333 0 1 1-42.666667 0v-71.978666a242.858667 242.858667 0 0 0-220.245333 221.866666h70.314666a21.333333 21.333333 0 1 1 0 42.666667H272.469333a244.906667 244.906667 0 0 0 220.16 222.165333v-76.202666a21.333333 21.333333 0 0 1 42.666667 0v76.373333a244.778667 244.778667 0 0 0 224.256-222.293333h-76.288a21.333333 21.333333 0 1 1 0-42.666667h193.408a21.333333 21.333333 0 0 1 0 42.666667"  horiz-adv-x="1024" />

    
    <glyph glyph-name="lfi013" unicode="&#59111;" d="M840.62848 428.032a21.674667 21.674667 0 0 1-26.112-15.104A311.210667 311.210667 0 0 0 615.47648 199.42399999999998c-0.298667-0.128-0.426667-0.341333-0.768-0.469333a21.034667 21.034667 0 0 1-15.36-20.138667V33.024a21.333333 21.333333 0 1 1 42.666667 0V164.30933300000004A353.450667 353.450667 0 0 1 855.775147 401.877333a21.418667 21.418667 0 0 1-15.146667 26.154667M421.257813 192.938667a20.906667 20.906667 0 0 1-8.746666 6.186666A311.04 311.04 0 0 0 212.66048 413.056 21.632 21.632 0 0 1 186.463147 428.117333a21.333333 21.333333 0 0 1-15.061334-26.154666A353.194667 353.194667 0 0 1 386.015147 164.010667V33.024a21.333333 21.333333 0 0 1 42.666666 0V177.024a21.034667 21.034667 0 0 1-7.424 15.914667M516.447147 664.832L606.77248 524.1173329999999 516.447147 460.245333 426.121813 524.1173329999999l90.325334 140.672zM306.271147 324.52266699999996c0.341333-1.109333 0.64-2.218667 1.152-3.285334a22.186667 22.186667 0 0 1 2.56-3.754666c0.64-0.853333 1.28-1.706667 2.048-2.432a20.48 20.48 0 0 1 4.053333-2.730667c0.853333-0.469333 1.536-1.109333 2.474667-1.450667a20.693333 20.693333 0 0 1 7.765333-1.578666h378.922667a21.077333 21.077333 0 0 1 7.808 1.578666c0.896 0.341333 1.621333 0.981333 2.56 1.450667a23.168 23.168 0 0 1 3.925333 2.688c0.853333 0.768 1.408 1.664 2.133333 2.517333 0.896 1.194667 1.792 2.346667 2.474667 3.712A20.48 20.48 0 0 1 725.343147 324.565333c0.256 0.853333 0.768 1.664 0.938666 2.56l10.666667 64.725334a21.333333 21.333333 0 0 1-17.578667 24.490666 21.034667 21.034667 0 0 1-24.490666-17.578666l-7.765334-46.805334h-342.613333L311.22048 553.130667l192.853333-136.533334c0.426667-0.256 0.896-0.128 1.28-0.426666 3.413333-2.048 7.04-3.413333 10.922667-3.413334l0.128-0.042666h0.128a21.034667 21.034667 0 0 1 10.922667 3.498666c0.426667 0.256 0.896 0.128 1.28 0.426667l191.402666 135.466667-9.941333-60.288a21.333333 21.333333 0 1 1 42.069333-6.912l17.92 108.586666a21.290667 21.290667 0 0 1-17.493333 24.490667c-0.853333 0.170667-1.664-0.085333-2.474667-0.042667a21.205333 21.205333 0 0 1-15.957333-3.584L641.71648 548.864 534.367147 715.8613330000001 534.19648 716.117333C533.513813 717.098667 532.489813 717.8240000000001 531.63648 718.677333 530.527147 719.9573330000001 529.503147 721.237333 528.137813 722.0906669999999c0 0.085333-0.085333 0.170667-0.170666 0.213333-0.768 0.426667-1.621333 0.554667-2.389334 0.938667C523.95648 724.010667 522.29248 724.864 520.543147 725.205333 519.135147 725.504 517.81248 725.290667 516.447147 725.290667S513.759147 725.504 512.43648 725.205333c-1.834667-0.341333-3.498667-1.194667-5.12-2.005333-0.810667-0.426667-1.621333-0.426667-2.346667-0.896L504.75648 722.0906669999999c-1.365333-0.896-2.432-2.261333-3.584-3.498667-0.810667-0.853333-1.792-1.536-2.432-2.56-0.085333-0.042667-0.170667-0.085333-0.256-0.213333L391.263147 548.864 298.67648 614.4a21.333333 21.333333 0 0 1-16.085333 3.541333c-1.194667 0-2.389333 0.341333-3.626667 0.085334a21.290667 21.290667 0 0 1-17.493333-24.490667l43.946666-266.368c0.085333-0.938667 0.597333-1.749333 0.896-2.645333z"  horiz-adv-x="1024" />

    
    <glyph glyph-name="lfi012" unicode="&#59115;" d="M730.666667 213.33333300000004a42.709333 42.709333 0 0 0 0-85.333333 42.709333 42.709333 0 0 0 0 85.333333m-412.458667-85.333333a42.709333 42.709333 0 0 0 0 85.333333 42.666667 42.666667 0 0 0 0-85.333333M170.666667 266.66666699999996v119.893333L227.114667 512H384v-244.949333c0-24.277333 8.405333-46.421333 22.058667-64.384H397.226667A85.461333 85.461333 0 0 1 318.208 256c-35.712 0-66.261333-22.144-78.976-53.333333h-6.357333c-0.341333 0-0.64-0.170667-0.981334-0.213334-0.426667 0.042667-0.768 0.298667-1.237333 0.341334A64.128 64.128 0 0 0 170.666667 266.66666699999996M874.666667 469.333333a21.333333 21.333333 0 0 1 21.333333 21.333334V575.616A107.093333 107.093333 0 0 1 788.992 682.666667h-297.984A107.093333 107.093333 0 0 1 384 575.616V554.666667H213.333333c-0.810667 0-1.493333-0.384-2.261333-0.469334a22.698667 22.698667 0 0 1-5.674667-1.109333c-1.237333-0.512-2.261333-1.408-3.370666-2.133333-1.194667-0.725333-2.432-1.322667-3.456-2.304-1.237333-1.237333-2.133333-2.773333-3.029334-4.266667-0.512-0.810667-1.28-1.365333-1.664-2.304l-0.170666-0.426667-0.042667-0.042666-63.786667-141.738667-0.042666-0.213333c-0.554667-1.28-0.64-2.730667-0.938667-4.096-0.298667-1.450667-0.853333-2.816-0.853333-4.224L128 391.125333v-124.458666a106.837333 106.837333 0 0 1 101.333333-106.496c0.512 0 0.896 0.256 1.408 0.256 0.725333-0.085333 1.365333-0.426667 2.133334-0.426667h1.109333c5.290667-41.941333 40.832-74.666667 84.224-74.666667a85.162667 85.162667 0 0 1 84.266667 74.666667H646.4c5.333333-41.941333 40.832-74.666667 84.266667-74.666667a85.162667 85.162667 0 0 1 84.608 78.293334A106.581333 106.581333 0 0 1 896 267.050667V362.66666699999996a21.333333 21.333333 0 0 1-42.666667 0v-95.616c0-28.629333-19.157333-52.181333-45.568-60.416A85.290667 85.290667 0 0 1 730.666667 256c-35.712 0-66.304-22.144-78.976-53.333333h-160.682667A64.426667 64.426667 0 0 0 426.666667 267.050667V575.616A64.426667 64.426667 0 0 0 491.008 640h297.984A64.426667 64.426667 0 0 0 853.333333 575.616V490.666667a21.333333 21.333333 0 0 1 21.333334-21.333334M316.458667 373.33333300000004a21.333333 21.333333 0 0 1 0 42.666667H236.458667a21.333333 21.333333 0 0 1 0-42.666667h80z"  horiz-adv-x="1024" />

    
    <glyph glyph-name="lfi010" unicode="&#59670;" d="M312.1 304.5c3.1-3.1 8.2-3.1 11.3 0l101.8 101.8 86.1-86.2c3.1-3.1 8.2-3.1 11.3 0l226.3 226.5c3.1 3.1 3.1 8.2 0 11.3l-36.8 36.8c-3.1 3.1-8.2 3.1-11.3 0L517 410.7l-86.1 86.2c-3.1 3.1-8.2 3.1-11.3 0L275.3 352.6c-3.1-3.1-3.1-8.2 0-11.3l36.8-36.8zM904 736H548V800c0 4.4-3.6 8-8 8h-56c-4.4 0-8-3.6-8-8v-64H120c-17.7 0-32-14.3-32-32v-520c0-17.7 14.3-32 32-32h356.4v-32L311.6 11.899999999999977c-3.7-2.4-4.7-7.3-2.3-11l30.3-47.2v-0.1c2.4-3.7 7.4-4.7 11.1-2.3L512 57.10000000000002l161.3-105.8c3.7-2.4 8.7-1.4 11.1 2.3v0.1l30.3 47.2c2.4 3.7 1.3 8.6-2.3 11L548 119.70000000000005V152h356c17.7 0 32 14.3 32 32V704c0 17.7-14.3 32-32 32z m-40-512H160V664h704v-440z"  horiz-adv-x="1024" />

    
    <glyph glyph-name="lfi009" unicode="&#59671;" d="M880 784H144c-17.7 0-32-14.3-32-32v-736c0-17.7 14.3-32 32-32h736c17.7 0 32 14.3 32 32V752c0 17.7-14.3 32-32 32z m-40-728H184V712h656v-656zM370.8 341.6c-54.6 0-98.8-44.2-98.8-98.8s44.2-98.8 98.8-98.8 98.8 44.2 98.8 98.8v42.4h84.7v-42.4c0-54.6 44.2-98.8 98.8-98.8s98.8 44.2 98.8 98.8-44.2 98.8-98.8 98.8h-42.4v84.7h42.4c54.6 0 98.8 44.2 98.8 98.8 0 54.6-44.2 98.8-98.8 98.8s-98.8-44.2-98.8-98.8v-42.4h-84.7v42.4c0 54.6-44.2 98.8-98.8 98.8S272 579.8 272 525.2s44.2-98.8 98.8-98.8h42.4v-84.7h-42.4z m42.4-98.8c0-23.4-19-42.4-42.4-42.4s-42.4 19-42.4 42.4 19 42.4 42.4 42.4h42.4v-42.4z m197.6 282.4c0 23.4 19 42.4 42.4 42.4s42.4-19 42.4-42.4-19-42.4-42.4-42.4h-42.4v42.4z m0-240h42.4c23.4 0 42.4-19 42.4-42.4s-19-42.4-42.4-42.4-42.4 19-42.4 42.4v42.4zM469.6 426.4h84.7v-84.7h-84.7v84.7z m-98.8 56.4c-23.4 0-42.4 19-42.4 42.4s19 42.4 42.4 42.4 42.4-19 42.4-42.4v-42.4h-42.4z"  horiz-adv-x="1024" />

    
    <glyph glyph-name="lfi008" unicode="&#62402;" d="M164.571429 804.571429h694.857142a73.142857 73.142857 0 0 0 73.142858-73.142858v-694.857142a73.142857 73.142857 0 0 0-73.142858-73.142858H164.571429a73.142857 73.142857 0 0 0-73.142858 73.142858V731.428571a73.142857 73.142857 0 0 0 73.142858 73.142858z m36.571428-73.142858a36.571429 36.571429 0 0 1-36.571428-36.571428v-621.714286a36.571429 36.571429 0 0 1 36.571428-36.571428h621.714286a36.571429 36.571429 0 0 1 36.571428 36.571428V694.857143a36.571429 36.571429 0 0 1-36.571428 36.571428H201.142857zM292.571429 603.4285709999999m-36.571429 0a36.571429 36.571429 0 1 1 73.142857 0 36.571429 36.571429 0 1 1-73.142857 0ZM292.571429 384m-36.571429 0a36.571429 36.571429 0 1 1 73.142857 0 36.571429 36.571429 0 1 1-73.142857 0ZM292.571429 164.57142899999997m-36.571429 0a36.571429 36.571429 0 1 1 73.142857 0 36.571429 36.571429 0 1 1-73.142857 0ZM453.814857 640h299.227429C771.401143 640 786.285714 623.634286 786.285714 603.4285709999999s-14.884571-36.571429-33.243428-36.571428H453.814857C435.456 566.857143 420.571429 583.222857 420.571429 603.4285709999999s14.884571 36.571429 33.243428 36.571429z m0-219.428571h299.227429c18.358857 0 33.243429-16.365714 33.243428-36.571429s-14.884571-36.571429-33.243428-36.571429H453.814857C435.456 347.42857100000003 420.571429 363.79428600000006 420.571429 384s14.884571 36.571429 33.243428 36.571429z m0-219.428572h299.227429c18.358857 0 33.243429-16.365714 33.243428-36.571428s-14.884571-36.571429-33.243428-36.571429H453.814857C435.456 128 420.571429 144.36571400000003 420.571429 164.57142899999997s14.884571 36.571429 33.243428 36.571428z"  horiz-adv-x="1024" />

    
    <glyph glyph-name="lfi007" unicode="&#59099;" d="M443.648 378.84799999999996a150.272 150.272 0 0 0-84.688 135.232V569.76a150.256 150.256 0 0 0 300.512 0v-55.664a150.24 150.24 0 0 0-81.536-133.648c178.624-32.944 259.632-200.16 259.632-250.16v-62.096a16 16 0 0 0-16-16H208a16 16 0 0 0-16 16v61.92c0 49.328 78.592 212.384 251.648 248.752z m272.48 266.368v16a16 16 0 0 0 16 16h90.432a16 16 0 0 0 16-16v-16a16 16 0 0 0-16-16h-90.432a16 16 0 0 0-16 16z m0-111.296v16a16 16 0 0 0 16 16h90.432a16 16 0 0 0 16-16v-16a16 16 0 0 0-16-16h-90.432a16 16 0 0 0-16 16z m0-111.312v16a16 16 0 0 0 16 16h90.432a16 16 0 0 0 16-16v-16a16 16 0 0 0-16-16h-90.432a16 16 0 0 0-16 16z m73.44-322.432v30.096c0 6.272-4.96 23.152-14.32 42.512-12.064 24.96-29.44 50.64-50.72 73.6-53.504 57.712-123.952 91.696-209.76 91.696-85.76 0-156.224-34-209.712-91.744-21.28-22.976-38.672-48.688-50.72-73.648C244.96 153.27999999999997 240 136.39999999999998 240 130.08000000000004v-29.92h549.568zM509.216 672a102.256 102.256 0 0 1-102.256-102.256v-55.664a102.256 102.256 0 0 1 204.512 0V569.76A102.256 102.256 0 0 1 509.232 672z"  horiz-adv-x="1024" />

    
    <glyph glyph-name="lfi006" unicode="&#59104;" d="M674.784 98.928v7.84c0 7.104-4.576 24.512-13.168 44.32a310.816 310.816 0 0 1-45.536 73.744c-47.168 56.736-108.48 89.76-182.688 89.76-74.192 0-135.52-33.04-182.672-89.808a310.976 310.976 0 0 1-45.552-73.808c-8.576-19.84-13.168-37.264-13.168-44.4v-7.648h482.784zM589.424 389.92c1.2 6.432 7.184 8 10.272 8.272a112.192 112.192 0 0 1 101.696 111.68V560.3199999999999a112.192 112.192 0 0 1-96.784 111.12c-5.024 0.704-15.392 0.704-15.392 17.584v16.512c0 16.256 10.768 14.688 16.032 14.16 80.944-8.032 144.144-76.32 144.144-159.36v-50.448c0-57.168-29.952-107.344-75.008-135.68 51.68-21.072 95.68-55.28 130.608-98.48 36.96-45.712 60.992-99.808 60.992-132.416v-76.384a16 16 0 0 0-16-16h-16a16 16 0 0 0-16 16v76.384c0 20.048-19.68 64.336-50.32 102.24-40.56 50.176-94.88 85.856-160.224 98.8a57.952 57.952 0 0 1-5.184 0.736 16 16 0 0 0-14.352 15.92v20.24c-0.128 3.92 0.48 6.704 1.52 8.672z m-224.672-35.76a150.288 150.288 0 0 0-87.2 136.416V546.24a150.256 150.256 0 1 0 300.528 0v-55.664a150.256 150.256 0 0 0-83.472-134.64c156.944-35.152 228.16-199.648 228.16-249.168v-39.84a16 16 0 0 0-16-16H160a16 16 0 0 0-16 16v39.648c0 48.832 68.992 208.992 220.752 247.584zM427.84 648.48a102.256 102.256 0 0 1-102.256-102.256v-55.664a102.256 102.256 0 1 1 204.512 0V546.24a102.256 102.256 0 0 1-102.24 102.24z"  horiz-adv-x="1024" />

    
    <glyph glyph-name="lfi005" unicode="&#59566;" d="M640 501.333333a32 32 0 0 0 0-64H384a32 32 0 0 0 0 64h256z m0-170.666666a32 32 0 0 0 0-64H384a32 32 0 0 0 0 64h256zM117.333333 458.666667a32 32 0 0 0-32 32V640c0 64.8 52.533333 117.333333 117.333334 117.333333h618.666666c64.8 0 117.333333-52.533333 117.333334-117.333333v-149.333333a32 32 0 0 0-32-32 74.666667 74.666667 0 0 1 0-149.333334 32 32 0 0 0 32-32v-149.333333c0-64.8-52.533333-117.333333-117.333334-117.333333H202.666667c-64.8 0-117.333333 52.533333-117.333334 117.333333V277.33333300000004a32 32 0 0 0 32 32 74.666667 74.666667 0 0 1 0 149.333334z m138.666667-74.666667c0-65.568-45.514667-120.512-106.666667-134.954667V128a53.333333 53.333333 0 0 1 53.333334-53.333333h618.666666a53.333333 53.333333 0 0 1 53.333334 53.333333V249.04533300000003C813.514667 263.48800000000006 768 318.432 768 384c0 65.568 45.514667 120.512 106.666667 134.954667V640a53.333333 53.333333 0 0 1-53.333334 53.333333H202.666667a53.333333 53.333333 0 0 1-53.333334-53.333333v-121.045333C210.485333 504.512 256 449.568 256 384z"  horiz-adv-x="1024" />

    
    <glyph glyph-name="lfi004" unicode="&#59567;" d="M821.333333 640a32 32 0 0 0 64 0v-565.333333c0-64.8-52.533333-117.333333-117.333333-117.333334H256c-64.8 0-117.333333 52.533333-117.333333 117.333334V693.333333c0 64.8 52.533333 117.333333 117.333333 117.333334h597.333333a32 32 0 0 0 0-64H256a53.333333 53.333333 0 0 1-53.333333-53.333334v-618.666666a53.333333 53.333333 0 0 1 53.333333-53.333334h512a53.333333 53.333333 0 0 1 53.333333 53.333334V640zM341.333333 458.666667a32 32 0 0 0 0 64h341.333334a32 32 0 0 0 0-64H341.333333z m0-170.666667a32 32 0 0 0 0 64h213.333334a32 32 0 0 0 0-64H341.333333z"  horiz-adv-x="1024" />

    
    <glyph glyph-name="lfi003" unicode="&#59571;" d="M544 234.66666699999996a32 32 0 0 0-64 0V533.333333a32 32 0 0 0 64 0v-298.666666z m160 0a32 32 0 0 0-64 0V405.333333a32 32 0 0 0 64 0v-170.666666z m-320 0a32 32 0 0 0-64 0V448a32 32 0 0 0 64 0v-213.333333zM202.666667 757.333333h618.666666c64.8 0 117.333333-52.533333 117.333334-117.333333v-512c0-64.8-52.533333-117.333333-117.333334-117.333333H202.666667c-64.8 0-117.333333 52.533333-117.333334 117.333333V640c0 64.8 52.533333 117.333333 117.333334 117.333333z m0-64a53.333333 53.333333 0 0 1-53.333334-53.333333v-512a53.333333 53.333333 0 0 1 53.333334-53.333333h618.666666a53.333333 53.333333 0 0 1 53.333334 53.333333V640a53.333333 53.333333 0 0 1-53.333334 53.333333H202.666667z"  horiz-adv-x="1024" />

    
    <glyph glyph-name="lfi002" unicode="&#59579;" d="M895.946667 161.952l1.066666-1.013333a29.824 29.824 0 0 0 0-43.413334l-162.261333-152.96a31.925333 31.925333 0 0 0-22.762667-8.704 31.925333 31.925333 0 0 0-22.773333 8.704l-93.184 87.84a29.824 29.824 0 0 0 0 43.413334l1.077333 1.013333a32 32 0 0 0 43.904 0l70.976-66.901333 140.053334 132.021333a32 32 0 0 0 43.904 0zM768 810.666667c64.8 0 117.333333-52.533333 117.333333-117.333334v-394.666666a32 32 0 0 0-64 0V693.333333a53.333333 53.333333 0 0 1-53.333333 53.333334H256a53.333333 53.333333 0 0 1-53.333333-53.333334v-618.666666a53.333333 53.333333 0 0 1 53.333333-53.333334h234.666667a32 32 0 0 0 0-64H256c-64.8 0-117.333333 52.533333-117.333333 117.333334V693.333333c0 64.8 52.533333 117.333333 117.333333 117.333334zM554.666667 352a32 32 0 0 0 0-64H341.333333a32 32 0 0 0 0 64z m128 170.666667a32 32 0 0 0 0-64H341.333333a32 32 0 0 0 0 64z"  horiz-adv-x="1024" />

    
    <glyph glyph-name="lfi001" unicode="&#59581;" d="M372.554667 731.978667a32 32 0 0 0 22.613333-59.861334C267.541333 623.893333 181.333333 501.386667 181.333333 362.66666699999996a32 32 0 0 0-64 0c0 165.557333 102.890667 311.776 255.221334 369.312zM232.469333 84.05333299999995a32 32 0 1 0 45.333334 45.173334A329.472 329.472 0 0 1 512 32a329.472 329.472 0 0 1 234.090667 97.12 32 32 0 0 0 45.301333-45.194667A393.461333 393.461333 0 0 0 512-32a393.461333 393.461333 0 0 0-279.530667 116.053333zM906.666667 362.66666699999996a32 32 0 0 0-64 0c0 138.538667-85.984 260.928-213.365334 309.269333a32 32 0 1 0 22.709334 59.84C804.042667 674.058667 906.666667 528 906.666667 362.66666699999996zM512 661.333333a64 64 0 1 0 0 128 64 64 0 0 0 0-128z m341.333333-501.333333a64 64 0 1 0 0 128 64 64 0 0 0 0-128z m-682.666666 0a64 64 0 1 0 0 128 64 64 0 0 0 0-128z"  horiz-adv-x="1024" />

    
    <glyph glyph-name="lfi027" unicode="&#59195;" d="M447.924744-32.016125999999986c-1.204099 0-2.408198 0.172014-3.440282 0.172014L157.908953-0.021502000000054977c-51.948261 1.032085-93.919704 43.691584-93.919704 95.983874L63.989249 704.032253c0 52.980346 43.175542 95.983874 95.983874 95.983874 1.204099 0 2.408198-0.172014 3.440282-0.172014l286.575508-31.82261c51.948261-1.032085 93.919704-43.691584 93.919704-95.983874l0-607.897867C543.908618 11.159414999999967 500.90509-32.016125999999986 447.924744-32.016125999999986zM158.424996 736.026877c-17.029397-0.860071-30.446498-14.793214-30.446498-31.994625l0-607.897867c0-17.717453 14.449185-31.994625 31.994625-31.994625 1.204099 0 2.408198-0.172014 3.440282-0.172014l286.059466-31.82261c17.029397 0.860071 30.446498 14.793214 30.446498 31.994625L479.919368 672.037628c0 17.545439-14.449185 31.994625-31.994625 31.994625-1.204099 0-2.408198 0.172014-3.440282 0.172014L158.424996 736.026877zM609.101965-28.23181599999998c-16.169326 0-29.930455 12.040988-31.82261 28.554342-2.064169 17.545439 10.664875 33.370737 28.382328 35.262893l254.752898 28.382328c1.204099 0.172014 2.236183 0.172014 3.440282 0.172014 17.717453 0 31.994625 14.277171 31.994625 31.994625L895.849488 704.032253c0 17.201411-13.589115 31.134554-30.446498 31.994625l-253.032757-28.0383c-17.201411-2.064169-33.370737 10.664875-35.262893 28.382328-2.064169 17.545439 10.664875 33.370737 28.382328 35.262893l255.096926 28.382328c1.032085 0.172014 2.236183 0.172014 3.440282 0.172014 52.980346 0 95.983874-43.175542 95.983874-95.983874L960.010751 96.13438599999995c0-52.29229-41.971443-94.951789-93.919704-95.983874l-253.204771-28.210314C611.510163-28.23181599999998 610.306064-28.23181599999998 609.101965-28.23181599999998zM408.01747 538.038636l-208.137074 0c-17.717453 0-31.994625 14.277171-31.994625 31.994625 0 17.717453 14.277171 31.994625 31.994625 31.994625l208.137074 0c17.717453 0 31.994625-14.277171 31.994625-31.994625C440.012095 552.4878209999999 425.734924 538.038636 408.01747 538.038636zM407.845456 353.467495L199.536368 353.467495c-17.717453 0-31.994625 14.277171-31.994625 31.994625 0 17.717453 14.277171 31.994625 31.994625 31.994625l208.137074 0c17.717453 0 31.994625-14.277171 31.994625-31.994625C439.840081 367.74466700000005 425.562909 353.467495 407.845456 353.467495zM408.01747 169.58441100000005l-208.137074 0c-17.717453 0-31.994625 14.277171-31.994625 31.994625 0 17.717453 14.277171 31.994625 31.994625 31.994625l208.137074 0c17.717453 0 31.994625-14.277171 31.994625-31.994625C440.012095 183.861582 425.734924 169.58441100000005 408.01747 169.58441100000005zM823.947589 537.1785649999999L615.810516 537.1785649999999c-17.717453 0-31.994625 14.277171-31.994625 31.994625 0 17.717453 14.277171 31.994625 31.994625 31.994625l208.137074 0c17.717453 0 31.994625-14.277171 31.994625-31.994625C855.942214 551.455737 841.665043 537.1785649999999 823.947589 537.1785649999999zM823.947589 352.43541100000004l-208.137074 0c-17.717453 0-31.994625 14.277171-31.994625 31.994625 0 17.717453 14.277171 31.994625 31.994625 31.994625l208.137074 0c17.717453 0 31.994625-14.277171 31.994625-31.994625C855.942214 366.884596 841.493029 352.43541100000004 823.947589 352.43541100000004zM823.947589 168.552327L615.810516 168.552327c-17.717453 0-31.994625 14.277171-31.994625 31.994625s14.277171 31.994625 31.994625 31.994625l208.137074 0c17.717453 0 31.994625-14.277171 31.994625-31.994625S841.665043 168.552327 823.947589 168.552327z"  horiz-adv-x="1024" />

    
    <glyph glyph-name="lfi062" unicode="&#59199;" d="M383.935495 416.080632L191.967747 416.080632c-52.980346 0-95.983874 43.003528-95.983874 95.983874L95.983874 704.032253c0 52.980346 43.003528 95.983874 95.983874 95.983874l191.967747 0c52.980346 0 95.983874-43.003528 95.983874-95.983874l0-191.967747C479.919368 459.084159 436.915841 416.080632 383.935495 416.080632zM191.967747 736.026877c-17.545439 0-31.994625-14.449185-31.994625-31.994625l0-191.967747c0-17.545439 14.449185-31.994625 31.994625-31.994625l191.967747 0c17.545439 0 31.994625 14.449185 31.994625 31.994625L415.930119 704.032253c0 17.545439-14.449185 31.994625-31.994625 31.994625L191.967747 736.026877 191.967747 736.026877zM383.935495-32.016125999999986L191.967747-32.016125999999986c-52.980346 0-95.983874 43.003528-95.983874 95.983874L95.983874 256.10750900000005c0 52.980346 43.003528 95.983874 95.983874 95.983874l191.967747 0c52.980346 0 95.983874-43.003528 95.983874-95.983874l0-191.967747C479.919368 11.159414999999967 436.915841-32.016125999999986 383.935495-32.016125999999986zM191.967747 288.102133c-17.545439 0-31.994625-14.277171-31.994625-31.994625l0-191.967747c0-17.717453 14.449185-31.994625 31.994625-31.994625l191.967747 0c17.545439 0 31.994625 14.277171 31.994625 31.994625L415.930119 256.10750900000005c0 17.717453-14.449185 31.994625-31.994625 31.994625L191.967747 288.102133 191.967747 288.102133zM832.032253-32.016125999999986L639.892491-32.016125999999986c-52.980346 0-95.983874 43.003528-95.983874 95.983874l0 63.989249c0 52.980346 43.003528 95.983874 95.983874 95.983874l191.967747 0c52.980346 0 95.983874-43.003528 95.983874-95.983874l0-63.989249C928.016126 11.159414999999967 884.840585-32.016125999999986 832.032253-32.016125999999986zM639.892491 159.95162100000005c-17.717453 0-31.994625-14.277171-31.994625-31.994625l0-63.989249c0-17.717453 14.277171-31.994625 31.994625-31.994625l191.967747 0c17.717453 0 31.994625 14.277171 31.994625 31.994625l0 63.989249c0 17.717453-14.277171 31.994625-31.994625 31.994625L639.892491 159.95162100000005 639.892491 159.95162100000005zM832.032253 288.102133L639.892491 288.102133c-52.980346 0-95.983874 43.003528-95.983874 95.983874l0 319.946246c0 52.980346 43.003528 95.983874 95.983874 95.983874l191.967747 0c52.980346 0 95.983874-43.003528 95.983874-95.983874l0-319.946246C928.016126 331.10566100000005 884.840585 288.102133 832.032253 288.102133zM639.892491 736.026877c-17.717453 0-31.994625-14.449185-31.994625-31.994625l0-319.946246c0-17.545439 14.277171-31.994625 31.994625-31.994625l191.967747 0c17.717453 0 31.994625 14.449185 31.994625 31.994625l0 319.946246c0 17.545439-14.277171 31.994625-31.994625 31.994625L639.892491 736.026877 639.892491 736.026877z"  horiz-adv-x="1024" />

    
    <glyph glyph-name="lfi061" unicode="&#59202;" d="M896.021502 640.043004L607.897867 640.043004c-17.717453 0-31.994625 14.277171-31.994625 31.994625 0 17.717453 14.277171 31.994625 31.994625 31.994625l287.951621 0c17.717453 0 31.994625-14.277171 31.994625-31.994625C928.016126 654.3201750000001 913.738955 640.043004 896.021502 640.043004zM896.021502 480.069881L607.897867 480.069881c-17.717453 0-31.994625 14.277171-31.994625 31.994625s14.277171 31.994625 31.994625 31.994625l287.951621 0c17.717453 0 31.994625-14.277171 31.994625-31.994625S913.738955 480.069881 896.021502 480.069881zM896.021502 223.94087000000002L607.897867 223.94087000000002c-17.717453 0-31.994625 14.277171-31.994625 31.994625s14.277171 31.994625 31.994625 31.994625l287.951621 0c17.717453 0 31.994625-14.277171 31.994625-31.994625S913.738955 223.94087000000002 896.021502 223.94087000000002zM896.021502 63.96774700000003L607.897867 63.96774700000003c-17.717453 0-31.994625 14.277171-31.994625 31.994625s14.277171 31.994625 31.994625 31.994625l287.951621 0c17.717453 0 31.994625-14.277171 31.994625-31.994625S913.738955 63.96774700000003 896.021502 63.96774700000003zM383.935495 416.080632L191.967747 416.080632c-52.980346 0-95.983874 43.003528-95.983874 95.983874L95.983874 704.032253c0 52.980346 43.003528 95.983874 95.983874 95.983874l191.967747 0c52.980346 0 95.983874-43.003528 95.983874-95.983874l0-191.967747C479.919368 459.084159 436.915841 416.080632 383.935495 416.080632zM191.967747 736.026877c-17.545439 0-31.994625-14.449185-31.994625-31.994625l0-191.967747c0-17.545439 14.449185-31.994625 31.994625-31.994625l191.967747 0c17.545439 0 31.994625 14.449185 31.994625 31.994625L415.930119 704.032253c0 17.545439-14.449185 31.994625-31.994625 31.994625L191.967747 736.026877 191.967747 736.026877zM383.935495-32.016125999999986L191.967747-32.016125999999986c-52.980346 0-95.983874 43.003528-95.983874 95.983874L95.983874 256.10750900000005c0 52.980346 43.003528 95.983874 95.983874 95.983874l191.967747 0c52.980346 0 95.983874-43.003528 95.983874-95.983874l0-191.967747C479.919368 11.159414999999967 436.915841-32.016125999999986 383.935495-32.016125999999986zM191.967747 288.102133c-17.545439 0-31.994625-14.277171-31.994625-31.994625l0-191.967747c0-17.717453 14.449185-31.994625 31.994625-31.994625l191.967747 0c17.545439 0 31.994625 14.277171 31.994625 31.994625L415.930119 256.10750900000005c0 17.717453-14.449185 31.994625-31.994625 31.994625L191.967747 288.102133 191.967747 288.102133z"  horiz-adv-x="1024" />

    
    <glyph glyph-name="lfi060" unicode="&#59307;" d="M362.644092 840.736508L172.292063 840.736508c-61.042681 0-110.526984-49.484303-110.526984-110.526984l0-190.713228c0-61.042681 49.484303-110.526984 110.526984-110.526984L379.259259 428.969312l94.273016 0 0 94.273016L473.532275 730.209524C473.532275 791.252205 423.686772 840.736508 362.644092 840.736508zM403.459612 561.1682539999999L403.459612 498.680776 341.333333 498.680776 204.438801 498.680776c-40.454321 0-72.962257 32.869136-72.962257 72.962257L131.476543 697.701587c0 40.454321 32.869136 72.962257 72.962257 72.962257l126.058554 0c40.454321 0 72.962257-32.869136 72.962257-72.962257L403.459612 561.1682539999999zM855.681129 428.969312c61.042681 0 110.526984 49.484303 110.526984 110.526984L966.208113 730.209524c0 61.042681-49.484303 110.526984-110.526984 110.526984l-190.713228 0c-61.042681 0-110.526984-49.484303-110.526984-110.526984l0-206.967196 0-94.273016 94.273016 0L855.681129 428.969312zM624.51358 561.1682539999999L624.51358 697.701587c0 40.454321 32.869136 72.962257 72.962257 72.962257L823.534392 770.663845c40.454321 0 72.962257-32.869136 72.962257-72.962257l0-126.058554c0-40.454321-32.869136-72.962257-72.962257-72.962257l-136.894533 0-62.126279 0L624.51358 561.1682539999999zM172.292063 347.699471c-61.042681 0-110.526984-49.484303-110.526984-110.526984l0-190.713228c0-61.042681 49.484303-110.526984 110.526984-110.526984l190.713228 0c61.042681 0 110.526984 49.484303 110.526984 110.526984l0 206.967196 0 94.273016L379.259259 347.699471 172.292063 347.699471zM403.459612 215.50052900000003l0-136.894533c0-40.454321-32.869136-72.962257-72.962257-72.962257L204.438801 5.643738999999982c-40.454321 0-72.962257 32.869136-72.962257 72.962257l0 126.058554c0 40.454321 32.869136 72.962257 72.962257 72.962257l136.894533 0 62.126279 0L403.459612 215.50052900000003zM855.681129 347.699471l-206.967196 0-94.273016 0 0-94.273016 0-206.967196c0-61.042681 49.484303-110.526984 110.526984-110.526984l190.713228 0c61.042681 0 110.526984 49.484303 110.526984 110.526984l0 190.713228C966.569312 298.21516799999995 916.72381 347.699471 855.681129 347.699471zM896.496649 78.96719599999994c0-40.454321-32.869136-72.962257-72.962257-72.962257l-126.058554 0c-40.454321 0-72.962257 32.869136-72.962257 72.962257l0 136.894533 0 62.126279 62.126279 0L823.534392 277.98800700000004c40.454321 0 72.962257-32.869136 72.962257-72.962257L896.496649 78.96719599999994z"  horiz-adv-x="1024" />

    
    <glyph glyph-name="lfi011" unicode="&#59105;" d="M515.381 563.114c-99.252 0-180-80.748-180-180s80.748-180 180-180c16.568 0 30 13.432 30 30s-13.432 30-30 30c-66.168 0-120 53.832-120 120s53.832 120 120 120 120-53.832 120-120c0-28.897-10.415-56.813-29.326-78.604-10.859-12.514-9.518-31.462 2.995-42.321 12.516-10.858 31.461-9.518 42.321 2.995 28.38 32.704 44.01 74.586 44.01 117.931-0.001 99.251-80.749 179.999-180 179.999zM951.308 465.53l-116.74 18.241a5.435 5.435 0 0 0-4.325 3.708 332.293 332.293 0 0 1-19.083 46.504 5.435 5.435 0 0 0 0.503 5.715l70.136 93.089a10.86 10.86 0 0 1-0.995 14.215L779.268 748.5360000000001a10.844 10.844 0 0 1-7.683 3.181c-2.234 0-4.479-0.687-6.399-2.088l-93.385-68.145a5.397 5.397 0 0 0-3.186-1.037c-0.863 0-1.73 0.205-2.526 0.619a332.249 332.249 0 0 1-50.188 21.063 5.432 5.432 0 0 0-3.698 4.32l-18.18 116.367A10.86 10.86 0 0 1 583.292 832h-143.59a10.86 10.86 0 0 1-10.755-9.348l-16.311-115.993a5.434 5.434 0 0 0-3.718-4.406 332.237 332.237 0 0 1-48.79-20.277 5.476 5.476 0 0 0-2.498-0.604 5.394 5.394 0 0 0-3.187 1.038l-93.579 68.287a10.834 10.834 0 0 1-6.399 2.088 10.844 10.844 0 0 1-7.683-3.181l-101.53-101.535a10.862 10.862 0 0 1-0.995-14.215l69.511-92.26a5.432 5.432 0 0 0 0.487-5.744 332.082 332.082 0 0 1-20.074-48.459 5.434 5.434 0 0 0-4.324-3.708L73.684 465.53a10.86 10.86 0 0 1-9.184-10.731v-143.591a10.86 10.86 0 0 1 9.348-10.755l112.846-15.868a10.836 10.836 0 0 0 8.761-7.257 332.03 332.03 0 0 1 17.874-42.799 10.836 10.836 0 0 0-1.035-11.383l-69.242-91.902a10.86 10.86 0 0 1 0.995-14.215L245.58 15.493000000000052a10.844 10.844 0 0 1 7.683-3.181c2.235 0 4.48 0.687 6.399 2.088l96.84 70.667a5.4 5.4 0 0 0 3.188 1.038c0.841 0 1.685-0.195 2.465-0.587a332.152 332.152 0 0 1 46.692-19.211 5.436 5.436 0 0 0 3.718-4.407l16.39-116.552A10.86 10.86 0 0 1 439.71-64H583.3c5.351 0 9.904 3.897 10.731 9.184l18.271 116.929a5.432 5.432 0 0 0 3.699 4.322 332.134 332.134 0 0 1 46.685 19.275 5.471 5.471 0 0 0 2.471 0.59c1.125 0 2.243-0.349 3.188-1.038l95.644-69.794a10.834 10.834 0 0 1 6.399-2.088c2.798 0 5.579 1.077 7.683 3.181l101.534 101.534a10.86 10.86 0 0 1 0.994 14.215l-70.469 93.531a5.432 5.432 0 0 0-0.478 5.761 332.174 332.174 0 0 1 20.357 48.726 5.434 5.434 0 0 0 4.402 3.707l116.742 16.417a10.86 10.86 0 0 1 9.348 10.755V454.799a10.878 10.878 0 0 1-9.193 10.731zM900.49 353.919l-74.443-10.468a65.321 65.321 0 0 1-33.082-14.789 65.427 65.427 0 0 1-19.998-29.689 273.071 273.071 0 0 0-16.679-39.92 65.426 65.426 0 0 1-7.039-35.297 65.306 65.306 0 0 1 12.948-34.02l44.766-59.417-41.592-41.592-61.679 45.009c-11.268 8.219-24.597 12.564-38.547 12.564a65.803 65.803 0 0 1-29.515-7.031 272.956 272.956 0 0 0-38.249-15.793 65.463 65.463 0 0 1-29.394-19.618 65.347 65.347 0 0 1-14.977-32.483l-11.778-75.377h-58.821l-10.442 74.258a65.31 65.31 0 0 1-14.826 33.12 65.43 65.43 0 0 1-29.766 19.992 272.903 272.903 0 0 0-38.249 15.737 65.806 65.806 0 0 1-29.45 6.998c-13.95 0-27.279-4.344-38.556-12.57l-62.866-45.875-41.593 41.593 43.54 57.79a70.799 70.799 0 0 1 13.971 36.202 70.757 70.757 0 0 1-7.237 38.206 273.17 273.17 0 0 0-14.646 35.066 70.762 70.762 0 0 1-21.937 31.898 70.812 70.812 0 0 1-35.318 15.586l-70.546 9.92V412.74l74.631 11.661a65.353 65.353 0 0 1 32.526 15.019 65.47 65.47 0 0 1 19.606 29.47 273.124 273.124 0 0 0 16.448 39.702 65.418 65.418 0 0 1 6.92 35.205 65.32 65.32 0 0 1-12.938 33.901l-43.809 58.146 41.593 41.593 59.606-43.496c11.269-8.224 24.601-12.57 38.555-12.57a65.796 65.796 0 0 1 29.844 7.198 272.94 272.94 0 0 0 39.98 16.618 65.43 65.43 0 0 1 29.765 19.986 65.319 65.319 0 0 1 14.832 33.13L482.417 772h58.821l11.69-74.815a65.354 65.354 0 0 1 14.982-32.488 65.472 65.472 0 0 1 29.399-19.614 273.114 273.114 0 0 0 41.126-17.262 65.75 65.75 0 0 1 30.186-7.375c13.953 0 27.285 4.347 38.554 12.57l59.411 43.354 41.593-41.593-44.434-58.975a65.344 65.344 0 0 1-12.921-33.695 65.447 65.447 0 0 1 6.712-35.036 273.146 273.146 0 0 0 15.636-38.1 65.466 65.466 0 0 1 19.609-29.467 65.348 65.348 0 0 1 32.528-15.015l75.187-11.747-0.006-58.823z"  horiz-adv-x="1024" />

    
    </font>
</defs>
</svg>
